<?xml version="1.0" standalone="no"?>
<!DOCTYPE svg PUBLIC "-//W3C//DTD SVG 1.1//EN" "http://www.w3.org/Graphics/SVG/1.1/DTD/svg11.dtd" >
<svg xmlns="http://www.w3.org/2000/svg">
<metadata>
Created by FontForge 20120731 at Mon Jul 10 21:25:13 2017
 By admin
</metadata>
<defs>
<font id="iconfont" horiz-adv-x="1024" >
  <font-face 
    font-family="iconfont"
    font-weight="500"
    font-stretch="normal"
    units-per-em="1024"
    panose-1="2 0 6 3 0 0 0 0 0 0"
    ascent="896"
    descent="-128"
    x-height="792"
    bbox="0 -212 1079 896"
    underline-thickness="0"
    underline-position="0"
    unicode-range="U+0078-E815"
  />
<missing-glyph 
 />
    <glyph glyph-name=".notdef" 
 />
    <glyph glyph-name=".notdef" 
 />
    <glyph glyph-name=".null" horiz-adv-x="0" 
 />
    <glyph glyph-name="nonmarkingreturn" horiz-adv-x="341" 
 />
    <glyph glyph-name="x" unicode="x" horiz-adv-x="1001" 
d="M281 543q-27 -1 -53 -1h-83q-18 0 -36.5 -6t-32.5 -18.5t-23 -32t-9 -45.5v-76h912v41q0 16 -0.5 30t-0.5 18q0 13 -5 29t-17 29.5t-31.5 22.5t-49.5 9h-133v-97h-438v97zM955 310v-52q0 -23 0.5 -52t0.5 -58t-10.5 -47.5t-26 -30t-33 -16t-31.5 -4.5q-14 -1 -29.5 -0.5
t-29.5 0.5h-32l-45 128h-439l-44 -128h-29h-34q-20 0 -45 1q-25 0 -41 9.5t-25.5 23t-13.5 29.5t-4 30v167h911zM163 247q-12 0 -21 -8.5t-9 -21.5t9 -21.5t21 -8.5q13 0 22 8.5t9 21.5t-9 21.5t-22 8.5zM316 123q-8 -26 -14 -48q-5 -19 -10.5 -37t-7.5 -25t-3 -15t1 -14.5
t9.5 -10.5t21.5 -4h37h67h81h80h64h36q23 0 34 12t2 38q-5 13 -9.5 30.5t-9.5 34.5q-5 19 -11 39h-368zM336 498v228q0 11 2.5 23t10 21.5t20.5 15.5t34 6h188q31 0 51.5 -14.5t20.5 -52.5v-227h-327z" />
    <glyph glyph-name="guanbi" unicode="&#xe640;" horiz-adv-x="1000" 
d="M514 693q-98 0 -181 -48t-131 -131t-48 -180.5t48 -180.5t131 -131.5t181 -48.5t181 48.5t131 131.5t48 180.5t-48 180.5t-131 131t-181 48zM706 179l-32 -32q-13 -13 -32 -13t-32 13l-97 97l-97 -97q-13 -13 -31 -13t-31 13l-31 31q-13 12 -13 30.5t13 30.5l97 98
l-96 96q-13 13 -13 32t13 32l32 32q13 13 31.5 13t31.5 -13l97 -97l85 85q13 13 31 13t31 -13l31 -30q13 -13 13 -31t-13 -31l-86 -86l98 -97q13 -13 13 -31.5t-13 -31.5z" />
    <glyph glyph-name="erweima" unicode="&#xe619;" horiz-adv-x="1000" 
d="M164 696h297q9 -1 14.5 -6.5t7 -17.5t2 -20t0 -25.5t-0.5 -21.5v-165q0 -6 0.5 -21.5t0.5 -23.5t-1.5 -18.5t-5.5 -17t-11 -9.5t-20.5 -3.5t-32.5 0.5t-24 1h-157q-7 0 -23 -0.5t-24.5 -0.5t-20 2t-17.5 7.5t-7 14.5v302q6 18 23 23zM205 628v-215h214v218h-213
q-2 0 -1 -3zM563 696h298q20 -7 23 -27v-294q-5 -21 -21 -26q-9 -2 -21.5 -2.5t-29.5 0.5t-24 1h-153q-6 0 -23.5 -1t-30.5 -1t-22 3q-7 2 -11.5 9t-6 18.5t-2 20.5t0 25.5t0.5 22.5v154q0 7 -0.5 24.5t0 26.5t2 20.5t7 17.5t14.5 8zM604 628v-215h215v218h-214q-1 0 -1 -3z
M302 565q23 4 38.5 -8.5t15.5 -33.5q1 -27 -20.5 -40t-44.5 -1q-16 8 -21 26.5t4 35.5t28 21zM702 565q38 7 50 -25q10 -30 -10 -51q-15 -15 -40 -11q-21 3 -29.5 23t0 40t29.5 24zM459 -58h-294q-19 6 -24 24v301q6 18 20 22q8 3 21 3t30 -1t24 -1h152q7 0 24 1t30 1t22 -3
q8 -2 13 -8.5t6.5 -18.5t2 -20.5t-0.5 -25t-1 -22.5v-159q0 -6 1 -23.5t0.5 -25.5t-2.5 -20t-8 -17.5t-16 -6.5zM205 222v-215h214v218h-213q-2 0 -1 -3zM884 263v-84q-1 -7 -1 -45v-46h-213v49q-4 2 -32 1.5t-34 -0.5q-1 -16 -1 -97v-99h-39q-9 2 -15 8.5t-8 18t-2 20.5
t0.5 26t0.5 24v155q0 7 -1 24.5t-0.5 31t2.5 21.5q2 5 4.5 8.5t7 5.5t8 3t11 1.5t11 0.5h12.5h12h145v-133h67v67t1 66q17 1 30.5 0.5t23 -7.5t10.5 -20zM307 160q25 3 40.5 -16.5t5.5 -44.5q-8 -22 -32 -26t-41.5 12t-10 44t37.5 31zM742 -58h-72v40t1 38h71v-78zM884 20
v-51q-4 -20 -24 -27h-51v40t1 38h74z" />
    <glyph glyph-name="fanhui" unicode="&#xe600;" 
d="M625 692l-40 40l-365 -366l365 -366l40 40l-326 326z" />
    <glyph glyph-name="shezhi" unicode="&#xe602;" 
d="M848 271q47 0 79.5 33t32.5 79.5t-32.5 79t-79.5 32.5h-19q-6 17 -14 33l14 14q33 32 33 78.5t-33 79.5t-79.5 33t-78.5 -33l-14 -14q-16 8 -33 14v19q0 47 -32.5 79.5t-79 32.5t-79.5 -32.5t-33 -79.5v-19q-16 -6 -33 -14l-13 14q-33 33 -79.5 33t-79 -33t-32.5 -79.5
t32 -78.5l14 -14q-8 -16 -13 -33h-20q-46 0 -79 -32.5t-33 -79t33 -79.5t79 -33h20q5 -16 13 -32l-14 -14q-32 -33 -32 -79.5t32.5 -79t79 -32.5t79.5 33l13 13q16 -7 33 -13v-20q0 -46 33 -79t79.5 -33t79 33t32.5 79v20q17 6 33 13l14 -13q32 -33 78.5 -33t79.5 32.5
t33 79t-33 79.5l-14 14q8 16 14 32h19zM789 185q17 -16 17 -39.5t-17 -39.5q-15 -16 -39 -16t-40 16l-43 43l-18 -10q-29 -16 -60 -25l-21 -6v-61q0 -23 -16.5 -39.5t-39.5 -16.5t-39.5 16.5t-16.5 39.5v61l-20 6q-32 9 -60 25l-19 10l-43 -43q-16 -16 -39.5 -16t-39.5 16
t-16 39.5t16 39.5l43 43l-10 19q-16 28 -25 60l-6 20h-61q-23 0 -39.5 16.5t-16.5 40t16.5 39.5t39.5 16h61l6 21q9 32 25 60l10 18l-43 43q-16 17 -16 40t16 40q16 15 39.5 15t39.5 -15l43 -44l19 11q28 15 60 25l20 5v61q0 24 16.5 40t39.5 16t39.5 -16t16.5 -40v-61
l21 -5q32 -10 60 -25l18 -11l43 44q16 15 40 15t39 -15q17 -17 17 -40t-17 -40l-43 -43l11 -18q15 -28 24 -60l6 -21h61q23 0 39.5 -16t16.5 -39.5t-16.5 -40t-39.5 -16.5h-61l-6 -20q-9 -32 -24 -60l-11 -19zM512.5 551q-69.5 0 -119 -49t-49.5 -118.5t49.5 -119t119 -49.5
t118.5 49.5t49 119t-49 118.5t-118.5 49zM512.5 271q-46.5 0 -79.5 33t-33 79.5t33 79t79.5 32.5t79 -32.5t32.5 -79t-32.5 -79.5t-79 -33z" />
    <glyph glyph-name="xin" unicode="&#xe641;" 
d="M515 -148l-82 79q-262 266 -341 466q-84 214 74 306q59 34 116 43t96.5 -2t70.5 -28t47 -31.5t15 -15.5q6 7 16.5 16.5t45 29.5t72 29t95.5 1t117 -42q58 -34 83.5 -84.5t19.5 -107.5t-31 -121.5t-66 -128t-86.5 -124t-92.5 -112t-84.5 -90.5t-61 -61l-23.5 -22v0z" />
    <glyph glyph-name="shezhi1" unicode="&#xe603;" 
d="M960 204l-122 -40l56 -111l-134 -134l-111 56l-39 -123h-190l-39 123l-111 -56l-134 134l55 111l-126 40v190l126 39l-55 111l134 135l111 -56l39 125h190l39 -125l111 56l134 -135l-56 -111l122 -39v-190zM515.5 541q-98.5 0 -168 -70t-69.5 -169t69.5 -168.5t168 -69.5
t168 69.5t69.5 168.5t-69.5 169t-168 70zM515.5 195q-44.5 0 -75.5 31.5t-31 75.5t31 75.5t75.5 31.5t75.5 -31.5t31 -75.5t-31 -75.5t-75.5 -31.5z" />
    <glyph glyph-name="bianji" unicode="&#xe647;" 
d="M324 153l42 -42l102 37l-107 107zM513.5 749q-91.5 0 -174.5 -35.5t-143.5 -96t-96 -143.5t-35.5 -174.5t35.5 -174.5t96 -143t143.5 -95.5t174.5 -35.5t174.5 35.5t143 95.5t95.5 143t35.5 174.5t-35.5 174.5t-95.5 143.5t-143 96t-174.5 35.5zM491 125v1q-3 -2 -5 -3
l-206 -75q-9 -3 -16 3q-7 7 -3 16l75 206q1 2 3 5h-1l186 186l37 -37l-146 -145q-3 -4 -3 -9t3.5 -8.5t8.5 -3.5t8 4l146 145l45 -45l-145 -145q-8 -8 0 -17q4 -3 9 -3t8 3l145 145v0l37 -37zM751 386l-58 -58l-64.5 64.5l-87.5 87.5l58 58q16 16 38 16t38 -16l76 -77
q16 -15 16 -37.5t-16 -37.5z" />
    <glyph glyph-name="xiangyou" unicode="&#xe63f;" 
d="M399 40l40 -40l365 366l-365 366l-40 -40l326 -326z" />
    <glyph glyph-name="dianhua" unicode="&#xe654;" 
d="M512 552q-2 0 -17 -1v-105q1 0 7.5 1t9.5 1q80 0 136 -56t56 -135q0 -24 -8 -53h107q5 28 5 53q0 122 -86.5 208.5t-209.5 86.5zM512 761q-3 0 -9 -0.5t-8 -0.5v-104q1 0 7.5 0.5t9.5 0.5q109 0 201 -54t145.5 -146t53.5 -200q0 -24 -3 -53h105q3 27 3 53
q0 102 -40 195.5t-107.5 161t-161 107.5t-196.5 40zM696 51q-3 1 -17 6.5t-18 7t-16.5 5.5t-17.5 4.5t-16.5 2.5t-18.5 0.5t-17.5 -3.5t-18.5 -6t-17.5 -10.5t-19.5 -15.5q-46 -44 -93 -19q-23 12 -106.5 102t-98.5 126q-5 11 -7.5 19.5t-3.5 15.5t-1.5 11.5t1.5 9.5
t2.5 6.5t4 7t4.5 6.5q1 2 11 12t18 21.5t15.5 30t6 46t-13.5 60.5q-11 33 -17.5 49t-19 38.5t-23.5 28t-29 7.5t-39 -11.5t-50 -40.5t-64 -71q-8 -9 -8 -37.5t3.5 -52t4.5 -23.5q2 -9 7 -23t25.5 -57.5t45.5 -86t69 -99.5t95 -105.5t124.5 -97.5t155.5 -82q23 -11 59.5 -6.5
t73.5 17t72.5 40.5t55.5 63q20 34 -3.5 54.5t-99.5 49.5z" />
    <glyph glyph-name="gouwuche" unicode="&#xe64a;" 
d="M793 245l110 252q8 20 -3 37t-31 17h-518l-9 37q-4 21 -23 36t-42 15h-132q-11 0 -18.5 -7.5t-7.5 -18.5t7.5 -18.5t18.5 -7.5h132q5 0 9 -3.5t5 -7.5l101 -448q-25 -10 -40 -32.5t-15 -49.5q0 -35 25.5 -60.5t61 -25.5t61 25.5t25.5 60.5q0 17 -6 32h178q-6 -15 -6 -32
q0 -35 25.5 -60.5t61 -25.5t61 25.5t25.5 61t-25.5 61t-61.5 25.5h-317l-19 82h320q15 0 28 8.5t19 21.5zM767 80q12 -2 20.5 -11.5t8.5 -22.5q0 -14 -10 -23.5t-23.5 -9.5t-23.5 9.5t-10 23.5q0 25 23 32zM363 498h482l-100 -230h-331zM423.5 13q-13.5 0 -23.5 9.5
t-10 23.5q0 13 8.5 22.5t20.5 11.5l15 -2q23 -7 23 -32q0 -14 -10 -23.5t-23.5 -9.5z" />
    <glyph glyph-name="dianhua1" unicode="&#xe655;" 
d="M861 -50q-67 124 -107 172q-36 43 -65 43q-16 0 -30 -8t-36 -26q-11 -8 -20 -13t-16 -7.5l-7 -2.5q-6 7 -32 38t-64 81.5t-51 77.5q-7 15 -8 25t6 20t20 18.5t38 20.5q25 14 38 32t11.5 32.5t-5.5 26.5q-99 150 -147 198q-20 20 -49 20q-24 0 -52.5 -16t-41 -26.5
t-21.5 -19.5q-21 -22 -39 -70t-24 -118.5t17 -147.5q70 -232 301 -439q81 -73 174 -73q44 0 88.5 18t65 33t37 30t22.5 33t4 29t-7 19zM352 644q13 -12 31.5 -36t36.5 -49t34.5 -48t26.5 -38l10 -15q3 -12 -25 -26q-30 -16 -47 -28l-147 212q40 34 65 34q9 0 15 -6z
M509 -104q-221 199 -287 418q-19 60 -15.5 118.5t15.5 97.5t27 62l146 -210q-34 -41 -5 -98q15 -30 54 -82.5t64.5 -83t36.5 -42.5q12 -13 35 -13q8 0 18 2l140 -208q-44 -21 -87 -21q-74 0 -142 60zM809 -96q-18 -17 -42 -32l-139 206q13 7 24 16q30 23 36.5 23t28.5 -26
q29 -35 102 -166q1 0 1 -2.5t-2.5 -7.5t-8.5 -11z" />
    <glyph glyph-name="shoukuan" unicode="&#xe644;" 
d="M960 300q0 28 -19.5 47.5t-46.5 19.5h-178v294q0 5 -1 11q1 5 1 10q0 27 -19.5 46.5t-46.5 19.5q-5 0 -10 -1q-6 1 -11 1h-233q-6 0 -11 -1q-5 1 -10 1q-28 0 -47 -19.5t-19 -46.5q0 -5 1 -10q-1 -6 -1 -11v-294h-181q-27 0 -46.5 -19.5t-19.5 -47.5q0 -35 29 -54
l370 -370q20 -24 51 -24q28 0 47 20v-1l385 385h-1q17 19 17 44zM471 188h-87q-12 1 -18.5 10t-8.5 20q2 11 8.5 18.5t18.5 8.5h87v28l-87 1q-12 0 -18.5 8t-8.5 19q2 12 8.5 19t18.5 8h64l-60 106q-4 6 -8 14t-4 18q2 13 9 20.5t25 10.5q11 -1 19.5 -7.5t14.5 -14.5
l68 -125l75 126q5 8 13.5 13.5t19.5 7.5q7 -1 12.5 -2.5t10 -4.5t7.5 -8.5t4 -15.5q0 -13 -9 -25l-70 -113h66q12 -1 19 -8t7 -19q0 -11 -7 -19t-19 -9l-86 -1v-27h86q12 -1 19 -9t7 -20q0 -11 -7 -19t-19 -9l-86 1v-48q-2 -38 -42 -38q-20 0 -31 9.5t-11 28.5v47v0z
M471 188z" />
    <glyph glyph-name="icon" unicode="&#xe601;" 
d="M828 426q0 87 -43 160.5t-116.5 116.5t-160.5 43t-160.5 -43t-116 -116.5t-42.5 -160.5q0 -95 52 -174h-1l240 -383v0q8 -18 28 -18t29 18v0l239 383v0q52 79 52 174v0zM508 572q61 0 103.5 -42.5t42.5 -103t-42.5 -103t-103 -42.5t-103.5 42.5t-43 103t43 103t103 42.5
v0zM508 572z" />
    <glyph glyph-name="shanchu" unicode="&#xe692;" 
d="M479 51v13q0 5 1 13h-221q-23 0 -39.5 16t-16.5 39t16.5 40t39.5 17h261q34 52 90 83.5t123 31.5q7 0 15 -0.5t16 -1.5v222h-131q-25 0 -43 11.5t-29 28t-16.5 36t-5.5 36.5v112h-253h-90h-72q-14 0 -23.5 -9.5t-9.5 -23.5v-82v-31v-548v0v-113q0 -14 9.5 -24t23.5 -10
h80h2h318q-21 31 -33 67t-12 77zM219.5 396q16.5 16 39.5 16h336q23 0 39.5 -16t16.5 -39t-16.5 -40t-39.5 -17h-336q-23 0 -39.5 17t-16.5 40t16.5 39zM917.5 126q-15.5 36 -42.5 62.5t-62.5 42.5t-77.5 16q-40 0 -75.5 -16t-62.5 -42.5t-43 -62.5t-16 -76q0 -41 16 -77
t43 -63t62.5 -42.5t75.5 -15.5q42 0 77.5 15.5t62.5 42.5t42.5 62.5t15.5 77.5q0 40 -15.5 76zM834 -11q8 -8 8 -20t-8 -20t-19.5 -8t-19.5 8l-60 60l-60 -60q-8 -8 -19.5 -8t-19.5 8t-8 20t8 20l59 60l-59 59q-8 8 -8 19.5t8 19.5t19.5 8t19.5 -8l60 -59l60 59q8 8 19.5 8
t19.5 -8t8 -19.5t-8 -19.5l-59 -59zM663 582v0h101v14v119q0 14 -10 23.5t-23 9.5h-133h-2v0v-99q0 -28 19.5 -47.5t47.5 -19.5z" />
    <glyph glyph-name="gouwuche1" unicode="&#xe653;" 
d="M482.5 83q-24.5 0 -42 -17.5t-17.5 -42.5t17.5 -42.5t42 -17.5t42 17.5t17.5 42.5t-17.5 42.5t-42 17.5zM769 83q-25 0 -42.5 -17.5t-17.5 -42.5t17.5 -42.5t42.5 -17.5t42.5 17.5t17.5 42.5t-17.5 42.5t-42.5 17.5zM839 193h-417l-143 425q-7 18 -29 18h-127
q-13 0 -22 -8t-9 -20.5t9 -20.5t22 -8h105l143 -424q7 -19 29 -19h439q13 0 21.5 8t8.5 20.5t-8.5 20.5t-21.5 8zM904 524l-516 45q-12 1 -18.5 -7t-1.5 -20l90 -270q4 -12 16 -21.5t24 -9.5h377q12 0 22 10t11 23l23 216q2 12 -6 22t-21 12z" />
    <glyph glyph-name="shanchu1" unicode="&#xe6a5;" 
d="M641 556v128h-259v-128h-190v-64h640v64h-191zM256 -84h512v512h-512v-512zM576 300h64v-256h-64v256zM384 300h64v-256h-64v256z" />
    <glyph glyph-name="dianhua2" unicode="&#xe656;" 
d="M949 29l-196 116q-8 4 -18 2.5t-16 -7.5l-57 -58q-15 -15 -36 -15q-3 0 -9 0.5t-26 8t-42.5 20.5t-59 41t-74.5 66.5t-66.5 74.5t-41.5 59t-20 43t-8 26t-1 9q1 20 15 35l49 49q7 6 8.5 16t-1.5 18l-109 204q-3 8 -10 9t-13 -5l-134 -134q-15 -15 -18 -35q0 -4 -0.5 -12
t2 -33.5t9.5 -53.5t24.5 -71t43 -87t69.5 -100.5t100 -112.5t112.5 -100t101.5 -69.5t86.5 -43.5t71.5 -24.5t53 -9.5t34 -2.5l11 0.5q21 3 36 18l134 134q6 6 4.5 13t-8.5 11z" />
    <glyph glyph-name="icon48" unicode="&#xe649;" 
d="M513 747q-91 0 -174 -35.5t-142.5 -95t-95.5 -142t-36 -173.5t35.5 -174t95 -142.5t142 -95.5t173.5 -36t174 35.5t142.5 95t95.5 142t36 173.5t-35.5 174t-95 142.5t-142 95.5t-173.5 36zM686 250h-124l-1 -124h-99v124l-124 1v99h124l1 124h99v-124l124 -1v-99z" />
    <glyph glyph-name="icon52" unicode="&#xe64d;" 
d="M512 747q-91 0 -173.5 -35.5t-142.5 -95.5t-95.5 -142.5t-35.5 -173.5t35.5 -173.5t95.5 -142.5t142.5 -95.5t173.5 -35.5t173.5 35.5t142.5 95.5t95.5 142.5t35.5 173.5t-35.5 173.5t-95.5 142.5t-142.5 95.5t-173.5 35.5zM686 250h-348v100h348v-100z" />
    <glyph glyph-name="llmenuwmnotice2" unicode="&#xe61a;" 
d="M527.5 679q-17.5 8 -32.5 -4q-44 -35 -95 -72q-92 -68 -117 -76h-135q-39 0 -62 -30q-20 -25 -20 -62v-270q0 -38 27 -64.5t65 -26.5h37h108q23 -8 106 -76q43 -35 85 -72q8 -8 20 -8q7 0 13 3q18 8 18 28v702q0 20 -17.5 28zM765 627q-11 6 -23 2t-18 -15t-2.5 -23
t14.5 -18q76 -41 120 -114t44 -158t-44 -158t-120 -113q-11 -6 -14.5 -18.5t2.5 -23.5q8 -16 27 -16q7 0 14 3q91 49 143.5 136.5t52.5 189.5t-52.5 189.5t-143.5 136.5zM769 187q32 52 32 114t-32 114q-32 51 -85 78q-11 6 -23 2t-18 -15.5t-2 -23.5t16 -18
q38 -19 60.5 -56t22.5 -81t-22.5 -81t-60.5 -56q-12 -6 -16 -18t2 -23q9 -17 28 -17q7 0 13 3q53 27 85 78z" />
    <glyph glyph-name="gengduo" unicode="&#xe60e;" 
d="M705 300zM641 300q0 27 18.5 45.5t45.5 18.5t45.5 -18.5t18.5 -45.5t-18.5 -45.5t-45.5 -18.5t-45.5 18.5t-18.5 45.5zM513 300zM449 300q0 27 18.5 45.5t45 18.5t45.5 -18.5t19 -45.5t-19 -45.5t-45.5 -18.5t-45 18.5t-18.5 45.5zM321 300zM256 300q0 27 19 45.5
t45.5 18.5t45.5 -18.5t19 -45.5t-19 -45.5t-45.5 -18.5t-45.5 18.5t-19 45.5zM512 -212q-104 0 -199 40.5t-163.5 109t-109 163.5t-40.5 199t40.5 199t109 163.5t163.5 109t199 40.5t199 -40.5t163.5 -109t109 -163.5t40.5 -199t-40.5 -199t-109 -163.5t-163.5 -109
t-199 -40.5zM512 774q-96 0 -184 -37.5t-151.5 -101t-101 -151.5t-37.5 -184t37.5 -184t101 -151.5t151.5 -101t184 -37.5t184 37.5t151.5 101t101 151.5t37.5 184t-37.5 184t-101 151.5t-151.5 101t-184 37.5z" />
    <glyph glyph-name="yongjin" unicode="&#xe632;" 
d="M122 300q0 106 52.5 195.5t142 142t195.5 52.5t195.5 -52.5t142 -142t52.5 -195.5t-52.5 -195.5t-142 -142t-195.5 -52.5t-195.5 52.5t-142 142t-52.5 195.5zM62 300q0 -91 36 -174.5t96 -143.5t143.5 -96t174.5 -36t174.5 36t143.5 96t96 143.5t36 174.5t-36 174.5
t-96 143.5t-143.5 96t-174.5 36t-174.5 -36t-143.5 -96t-96 -143.5t-36 -174.5zM359 272q0 -11 7.5 -14t22.5 -3h93v-60h-92q-12 0 -21.5 -15t-9.5 -29q0 -7 4.5 -11t9.5 -4.5t16 -0.5h93v-111q0 -24 30 -24q13 0 21.5 9t8.5 21v105h92q11 0 16 0.5t10 4.5t5 11q0 14 -9 29
t-21 15h-93v60h92q11 0 16.5 1t10 4.5t4.5 11.5q0 14 -9 28.5t-21 14.5h-93v22l125 122q9 9 9.5 21t-8.5 21t-22 9t-22 -9l-112 -109l-112 109q-9 9 -22 9t-22 -9t-8.5 -21t9.5 -21l125 -121v-23h-92q-12 0 -21.5 -14.5t-9.5 -28.5z" />
    <glyph glyph-name="weizhi" unicode="&#xe634;" 
d="M797 405q0 -38 -71.5 -157.5t-142 -221t-71.5 -101.5q-12 17 -31 44t-68 100t-86.5 133t-68.5 120t-31 83q0 118 83.5 201.5t201.5 83.5t201.5 -83.5t83.5 -201.5zM167 405q0 -28 33.5 -95.5t79.5 -142.5t95 -149.5t80 -119.5t33 -48h48q13 19 34.5 50.5t77 116t97.5 154
t77 138.5t35 96q0 94 -46.5 173t-125.5 125.5t-173 46.5t-173 -46.5t-125.5 -125.5t-46.5 -173zM422 405q0 37 26.5 63.5t63.5 26.5t63.5 -26.5t26.5 -63.5t-26.5 -63.5t-63.5 -26.5t-63.5 26.5t-26.5 63.5zM362 405q0 -62 44 -106t106 -44t106 44t44 106t-44 106t-106 44
t-106 -44t-44 -106z" />
    <glyph glyph-name="sousuo" unicode="&#xe686;" 
d="M871 -17l-174 174q72 87 72 199q0 130 -91.5 221.5t-221 91.5t-221 -91.5t-91.5 -221t91.5 -221t221.5 -91.5q110 0 196 69l130 -128v0l45 -45q9 -9 21.5 -9t21.5 9t9 21.5t-9 21.5zM456.5 105q-104.5 0 -178 73.5t-73.5 178t73.5 178t178 73.5t178 -73.5t73.5 -178
t-73.5 -178t-178 -73.5z" />
    <glyph glyph-name="riqi" unicode="&#xe645;" 
d="M290 584zM278 584q0 5 3.5 8.5t8.5 3.5t8.5 -3.5t3.5 -8.5t-3.5 -8.5t-8.5 -3.5t-8.5 3.5t-3.5 8.5zM290 540q20 0 34.5 14.5t14.5 34.5v107q0 20 -14.5 34t-34.5 14t-34 -14t-14 -34v-107q0 -20 14 -34.5t34 -14.5zM290 608q10 0 17 -7t7 -17t-7 -17t-17 -7t-17 7t-7 17
t7 17t17 7zM734 540q20 0 34 14.5t14 34.5v107q0 20 -14 34t-34 14t-34 -14t-14 -34v-107q0 -20 14 -34.5t34 -14.5zM734 608q10 0 17 -7t7 -17t-7 -17t-17 -7t-17 7t-7 17t7 17t17 7zM734 584zM722 584q0 5 3.5 8.5t8.5 3.5t8.5 -3.5t3.5 -8.5t-3.5 -8.5t-8.5 -3.5
t-8.5 3.5t-3.5 8.5zM878 612h-59v-20q0 -34 -24 -58t-58 -24h-8q-34 0 -58 24t-24 58v20h-271v-20q0 -34 -24 -58t-58 -24h-8q-34 0 -58 24t-24 58v20h-59q-34 0 -58 -24t-24 -58v-592q0 -34 24 -58t58 -24h733q34 0 58 24t24 58v592q0 34 -24 58t-58 24zM882 -79h-742v544
h742v-544zM849 435h-677v-484h677v484zM418 43h-36v247q-23 -24 -59 -45v34q45 30 73 71h22v-307zM714 139.5q-1 -19.5 -8 -40.5t-21.5 -34t-35 -21t-47.5 -6.5t-51 19.5t-33 61l32 9q13 -49 43.5 -54t49 6.5t26.5 30.5t7 42t-12.5 39t-29.5 21.5t-40 0t-37 -24.5l-30 3
q4 11 34 154h141v-32h-114q-9 -49 -18 -77q27 12 50 11.5t44.5 -10.5t31.5 -27t14.5 -34t3.5 -36.5z" />
    <glyph glyph-name="icon27" unicode="&#xe68a;" 
d="M195 616q-64 -65 -97.5 -148.5t-33.5 -168t33.5 -168.5t97.5 -148q86 -86 201.5 -116.5t230.5 0t201 116.5t116.5 201t0 230.5t-116.5 201.5t-201 116.5t-230.5 0t-201.5 -116.5zM729 408l-108 -109l108 -109l-108 -108l-109 108l-109 -108l-109 108l109 109l-109 109
l109 109l109 -109l109 109z" />
    <glyph glyph-name="daifukuan" unicode="&#xe75a;" 
d="M645 106v122q0 8 4.5 14t11.5 6h293v159q0 6 -4.5 10.5t-11.5 4.5h-859q-6 0 -10.5 -4.5t-4.5 -10.5v-509q0 -7 4.5 -11.5t10.5 -4.5h859q7 0 11.5 4.5t4.5 11.5v189h-293q-7 0 -11.5 5.5t-4.5 13.5zM954 225h-264q-8 0 -13.5 -4t-5.5 -10v-87q0 -6 5.5 -10.5t13.5 -4.5
h264v116zM720 144q-10 0 -17 6.5t-7 16.5t7 17t17 7t17 -7t7 -17t-7 -16.5t-17 -6.5zM381 430l249 251l-75 44l-188 -294zM700 728l-300 -297h481l58 58z" />
    <glyph glyph-name="daifukuan1" unicode="&#xe762;" 
d="M494 693v0v0zM570 695v0v0zM930 414h-77l52 49l-243 259l-48 -46l-107 67l-207 -329h-207q-12 0 -20 -8t-8 -19v-496q0 -11 8 -19t20 -8h837q12 0 20 8t8 19v190v155v151q0 11 -8 19t-20 8zM862 464l-54 -50h-429l282 264zM516 701l74 -47l-250 -234zM96 -106v489h832
v-128h-277q-8 0 -14 -5.5t-6 -13.5v-155q0 -8 6 -13.5t14 -5.5h277v-168h-832zM928 92h-266v132h266v-132zM704 175h36v-36h-36v36z" />
    <glyph glyph-name="daipingjia01" unicode="&#xe61b;" 
d="M328 740h27q9 -15 37.5 -65.5t45.5 -79.5q30 47 89 145h21q14 -24 43 -73t43 -72q47 81 85 145h21q83 -133 68 -278q-8 -79 -65.5 -139.5t-134.5 -71.5q-15 -2 -20.5 -9t-5.5 -22q1 -42 1 -109.5v-109.5q0 -1 5 -27q14 20 14 21q216 224 313 323q4 4 9.5 7t13 6.5
t11.5 5.5q1 -4 4.5 -12t5.5 -14.5t2 -12.5q1 -23 1 -161q0 -95 -53 -167t-144 -100q-1 -1 -25 -10h-247q-3 39 -3 41q0 283 -1 316q0 9 -6 19.5t-13 12.5q-106 25 -160.5 99t-46.5 184q4 50 20 97.5t45 110.5zM328 -140q-24 10 -25 10q-87 28 -139.5 96.5t-56.5 158.5
q-2 70 -1 175q0 6 2.5 12t6 13.5t5.5 11.5q3 -2 11 -5t13.5 -6t8.5 -7q168 -168 296 -301q15 -16 17 -42q0 -13 -1 -116h-137z" />
    <glyph glyph-name="share" unicode="&#xe648;" 
d="M750 168v1v0v0v-1zM725 181v0v0v0v0zM789 136q-57 0 -94 -43l-246 155q16 34 16 71q0 39 -17 75l229 130q31 -45 85 -45q43 0 73.5 30.5t30.5 74t-30.5 74t-73.5 30.5t-73.5 -30.5t-30.5 -74.5q0 -8 1 -17l-235 -134q-53 64 -136 64q-73 0 -124.5 -51.5t-51.5 -125
t51.5 -125t124.5 -51.5q41 0 77 17.5t61 48.5l246 -155q-7 -20 -7 -42q0 -51 36 -87.5t87.5 -36.5t87.5 36.5t36 87.5t-36 87.5t-87 36.5zM761.5 642q24.5 0 42 -17t17.5 -41.5t-17.5 -42t-42 -17.5t-41.5 17.5t-17 42t17 41.5t41.5 17zM287 185q-55 0 -94 39t-39 94t39 94
t94 39t93.5 -39t38.5 -94t-38.5 -94t-93.5 -39zM788.5 -66q-32.5 0 -55.5 23t-23 55.5t23 55t55.5 22.5t55.5 -22.5t23 -55t-23 -55.5t-55.5 -23z" />
    <glyph glyph-name="xiala" unicode="&#xe62b;" 
d="M784 441l-272 -271l-272 271l-45 -45l317 -317l317 317z" />
    <glyph glyph-name="bianji1" unicode="&#xe6e3;" 
d="M519.5 763q-95.5 0 -182.5 -37t-149.5 -99.5t-99.5 -149.5t-37 -182.5t37 -182.5t99.5 -150t149.5 -100t182.5 -37t182.5 37t150 100t100 150t37 182.5t-37 182.5t-100 149.5t-150 99.5t-182.5 37zM426 279l212 209l73 -76l-209 -212l-76 79v0zM484 190l-116 -50l45 119
l71 -69v0zM741 52v0q0 -4 -3.5 -7.5t-8.5 -3.5h-454q-5 0 -8.5 3.5t-3.5 7.5v451q0 5 3.5 8.5t8.5 3.5h323l-47 -50h-228q-9 0 -9 -10v-354q0 -10 9 -10h358q9 0 9 10v227l51 47v-323v0zM772 470l-42 -44l-77 77l38 37q17 17 39 0q10 -7 20.5 -16.5t15.5 -14.5l6 -6
q1 -3 2 -6.5t2 -13t-4 -13.5z" />
    <glyph glyph-name="snimicsousuo" unicode="&#xe6a3;" 
d="M957 -55l-251 252q62 90 62 199q0 146 -103 249t-249 103t-249 -103t-103 -249t103 -249t249 -103q109 0 199 62l252 -251zM192 396q0 93 65.5 158.5t158.5 65.5t158.5 -65.5t65.5 -158.5t-65.5 -158.5t-158.5 -65.5t-158.5 65.5t-65.5 158.5z" />
    <glyph glyph-name="erweima1" unicode="&#xe61c;" 
d="M544 -84h64v-64h-64v64v0zM416 396v352h-352v-352h64v-64h64v64h224v0zM128 460v224h224v-224h-224v0zM192 620h96v-96h-96v96v0zM608 748v-352h352v352h-352v0zM896 460h-224v224h224v-224v0zM736 620h96v-96h-96v96v0zM192 76h96v-96h-96v96v0zM64 332h64v-64h-64v64v0
zM192 332h64v-64h-64v64v0zM256 204h-192v-352h352v352h-96v64h-64v-64v0zM352 140v-224h-224v224h224v0zM480 716h64v-96h-64v96v0zM480 556h64v-64h-64v64v0zM672 332h-64h-64v96h-64v-96h-97v-64h97h64h64v-64h64v64v64zM672 204h64v-64h-64v64v0zM480 204h64v-96h-64v96
v0zM480 44h64v-128h-64v128v0zM608 108h64v-192h-64v192v0zM800 204h160v-64h-160v64v0zM896 332h64v-64h-64v64v0zM736 332h96v-64h-96v64v0zM736 108h64v-64h-64v64v0zM896 44h-65v-64h97v64h32v64h-64v-64zM736 -20h64v-64h-64v64v0zM800 -84h160v-64h-160v64v0zM800 -84
z" />
    <glyph glyph-name="zhifu" unicode="&#xe604;" 
d="M265 251q0 26 16 38t40 10t51 -4q38 -5 69 -19q4 -2 43 -22q-21 -24 -34 -37.5t-34 -26.5t-44 -17q-14 -2 -30 -2q-28 2 -52.5 25.5t-24.5 54.5v0zM230 231q1 -53 43 -75.5t99 -17.5q43 3 75 19q34 17 86 69l33.5 -19.5t56.5 -30.5q27 -14 40 -19t31.5 -10t31.5 -0.5
t29.5 16t35.5 32.5q-23 0 -29 1q-20 3 -35 7t-24 7.5t-29 12t-36 14.5q-45 18 -69 29q29 35 55 75.5t38.5 63.5t12.5 25l-123 -1v75h155v26h-155v79l-42 -2q-24 0 -30 -6q-4 -3 -5 -6v-65h-103h-47v-26h47h103v-75h-103h-5v-26h5h210q-2 -3 -14 -28.5t-25.5 -47.5t-29.5 -41
q-5 2 -34 14q-48 21 -107 24q-28 1 -51 -2t-44.5 -12t-33.5 -28t-13 -47v-4v0zM461 -71q-75 41 -124 76.5t-82 74t-49.5 79t-25 91.5t-8.5 112v140q1 76 1 119q190 58 339 66q174 -19 337 -66q0 -49 1 -133q0 -80 1 -141t-8 -110.5t-25 -88.5t-49.5 -75.5t-82 -70
t-122.5 -73.5q-30 -16 -52 -16t-51 16v0zM119 672q0 -50 -1 -138v-163t9.5 -129.5t28.5 -106t57.5 -91.5t96 -85.5t143.5 -88.5q34 -19 59 -19t61 19q74 40 125 74t89 69.5t59.5 72t36 80.5t17.5 95t5 116t-1 143q-1 96 -1 152q-178 53 -390 76q-114 -6 -210 -28
q-98 -22 -184 -48v0zM119 672z" />
    <glyph glyph-name="shoucang" unicode="&#xe7c6;" 
d="M944 420l-287 42q-1 0 -1 1l-128 259q0 1 -1 0l-128 -259q0 -1 -1 -1l-287 -42q-1 0 0 0l207 -202q1 -1 1 -2l-49 -285v-1h1l256 135h1q0 31 14 52t33 21h66v67q0 19 22.5 33t53.5 14q25 0 45 -9l182 177q1 0 0 0zM831 100h-76v76q0 16 -11 27t-27 11t-27 -11t-11 -27
v-76h-76q-15 0 -26.5 -11t-11.5 -26.5t11.5 -27t26.5 -11.5h76v-75q0 -16 11 -27t27 -11t27 11t11 27v75h76q16 0 27 11.5t11 27t-11 26.5t-27 11z" />
    <glyph glyph-name="fenxiang" unicode="&#xe61d;" 
d="M704 180q-53 0 -94 -33l-121 102q12 27 12 58q0 36 -17 68l102 95q26 -11 54 -11q58 0 99 41t41 98.5t-41 98.5t-99 41t-98.5 -41t-40.5 -98q0 -23 7 -45l-111 -103q-24 8 -49 8q-63 0 -107.5 -44.5t-44.5 -107.5t44.5 -108t107.5 -45q32 0 60 13l144 -122q-1 -9 -1 -17
q0 -64 45 -108.5t108 -44.5t107.5 44.5t44.5 108t-44.5 108t-107.5 44.5v0zM704 180z" />
    <glyph glyph-name="xin1" unicode="&#xe64c;" 
d="M511 -119q-9 0 -17 6q-226 162 -327.5 300.5t-101.5 282.5q0 111 64.5 185.5t160.5 74.5q78 0 133.5 -31.5t87.5 -77.5q32 46 87.5 77.5t133.5 31.5q97 0 161.5 -74.5t64.5 -185.5q0 -144 -102 -282.5t-328 -300.5q-8 -6 -17 -6zM290 672q-72 0 -119.5 -58t-47.5 -144
q0 -126 92 -250.5t296 -273.5q204 149 296.5 273.5t92.5 250.5q0 86 -48 144t-120 58q-43 0 -78.5 -12.5t-55 -28.5t-34.5 -36.5t-19 -29.5t-6 -15q-7 -20 -28 -20v0q-21 0 -27 20q-2 6 -6 15t-19.5 29.5t-35 36.5t-55 28.5t-78.5 12.5z" />
    <glyph glyph-name="androidmorevertical" unicode="&#xe6de;" 
d="M592 540q0 33 -23.5 56.5t-56.5 23.5t-56.5 -23.5t-23.5 -56.5t23.5 -56.5t56.5 -23.5t56.5 23.5t23.5 56.5zM592 60q0 33 -23.5 56.5t-56.5 23.5t-56.5 -23.5t-23.5 -56.5t23.5 -56.5t56.5 -23.5t56.5 23.5t23.5 56.5zM592 300q0 33 -23.5 56.5t-56.5 23.5t-56.5 -23.5
t-23.5 -56.5t23.5 -56.5t56.5 -23.5t56.5 23.5t23.5 56.5z" />
    <glyph glyph-name="dingdan" unicode="&#xe607;" 
d="M792 637h-84v56h-75q-19 25 -51 40.5t-70 15.5t-70 -15.5t-51 -40.5h-75v-56h-84q-46 0 -79 -33t-33 -79v-560q0 -47 33 -79.5t79 -32.5h560q46 0 79 32.5t33 79.5v560q0 46 -33 79t-79 33zM372 637h62q0 23 23 39.5t55 16.5t55 -16.5t23 -39.5h62v-112h-280v112z
M848 -35q0 -24 -16.5 -40t-39.5 -16h-560q-23 0 -39.5 16t-16.5 40v560q0 23 16.5 39.5t39.5 16.5h84v-112h392v112h84q23 0 39.5 -16.5t16.5 -39.5v-560zM708 77h-392q-12 0 -20 -8.5t-8 -20t8 -19.5t20 -8h392q12 0 20 8t8 19.5t-8 20t-20 8.5zM708 357h-392
q-12 0 -20 -8.5t-8 -20t8 -19.5t20 -8h392q12 0 20 8t8 19.5t-8 20t-20 8.5zM708 217h-392q-12 0 -20 -8.5t-8 -20t8 -19.5t20 -8h392q12 0 20 8t8 19.5t-8 20t-20 8.5z" />
    <glyph glyph-name="xuanzhong" unicode="&#xe660;" 
d="M511.5 -143q-90.5 0 -172.5 35q-80 33 -141.5 94.5t-95.5 141.5q-35 82 -35 172.5t35 173.5q34 79 95.5 140.5t141.5 95.5q82 35 172.5 35t172.5 -35q80 -34 141.5 -95.5t94.5 -140.5q35 -83 35 -173.5t-35 -172.5q-33 -80 -94.5 -141.5t-141.5 -94.5q-82 -35 -172.5 -35
zM511 714q-112 0 -207 -55.5t-150.5 -150.5t-55.5 -207t55.5 -207.5t150.5 -151t207 -55.5t207.5 55.5t151 151t55.5 207.5t-55.5 207t-151 150.5t-207.5 55.5zM446 100l-238 238q-10 10 0.5 21t21.5 0l216 -215l347 346q11 11 21.5 0.5t-0.5 -21.5z" />
    <glyph glyph-name="svgmoban06" unicode="&#xe651;" 
d="M496 -78zM431 -78q0 27 19 46t46 19t46 -19t19 -46t-19 -45.5t-46 -18.5t-46 18.5t-19 45.5zM782 -78zM717 -78q0 27 19 46t46 19t46 -19t19 -46t-19 -45.5t-46 -18.5t-46 18.5t-19 45.5zM904 91h-465l-21 56h502l104 437h-768l-59 158h-1v0h-196v-37h140l259 -693h505
v79zM846 363h-60q0 -3 -1 -12.5t-2 -14.5q-7 -49 -36 -81.5t-75 -45.5v0h-1q-5 -2 -12 -4q-12 -2 -27 -4q-4 -1 -6 -1q-39 -4 -70 3q30 1 58 9t43 18q34 23 49 70q9 28 9 63h-61q13 18 96 127q79 -103 96 -127zM506 340q2 23 2 27q7 50 36 82t75 46v0h1q5 2 13 3q13 3 27 5
l2 0.5t3 0.5q39 4 70 -3q-30 -1 -58 -9.5t-42 -17.5q-35 -24 -50 -71q-8 -26 -9 -62h61q-16 -22 -48 -64l-48 -63q-49 64 -96 126h61z" />
    <glyph glyph-name="icondpj" unicode="&#xe672;" 
d="M914 725h-806q-17 0 -29.5 -12.5t-12.5 -29.5v-594q0 -17 12.5 -29.5t29.5 -12.5h174l-25 -170l254 170h403q18 0 30 12.5t12 29.5v594q0 17 -12.5 29.5t-29.5 12.5zM352 369q0 -14 -9 -24.5t-23 -10.5h-63q-13 0 -22.5 10.5t-9.5 24.5v36q0 14 9.5 24.5t22.5 10.5h63
q14 0 23 -10.5t9 -24.5v-36zM575 369q0 -14 -9.5 -24.5t-22.5 -10.5h-64q-13 0 -22 10.5t-9 24.5v36q0 14 9 24.5t22 10.5h64q13 0 22.5 -10.5t9.5 -24.5v-36zM797 369q0 -14 -9 -24.5t-22 -10.5h-64q-13 0 -22.5 10.5t-9.5 24.5v36q0 14 9.5 24.5t22.5 10.5h64
q13 0 22 -10.5t9 -24.5v-36z" />
    <glyph glyph-name="youhuiquan" unicode="&#xe625;" 
d="M935 484q17 11 21 21t4 28v150q0 30 -22 52t-53 22h-746q-31 0 -53 -22t-22 -52v-150q0 -19 4.5 -30t20.5 -19q31 -15 53 -40t22 -60q0 -75 -73 -99q-27 -17 -27 -50v-150q0 -30 22 -52t53 -22h746q31 0 53 22t22 52v150q0 19 -5 28.5t-20 20.5q-41 22 -58 43.5t-17 56
t16.5 56t58.5 44.5zM910 244v-134q0 -20 -14.5 -34.5t-35.5 -14.5h-696q-21 0 -35.5 14.5t-14.5 34.5v134q44 16 71.5 54t27.5 86t-27.5 86t-71.5 54v134q0 20 14.5 34.5t35.5 14.5h696q21 0 35.5 -14.5t14.5 -34.5v-134q-44 -16 -71.5 -54t-27.5 -86t27.5 -86t71.5 -54z
M649 434h-94l102 109q8 9 0 18l-16 17q-8 9 -16 0l-113 -121l-113 121q-8 9 -16 0l-16 -17q-8 -9 0 -17l102 -110h-94q-5 0 -8.5 -4t-3.5 -9v-25q0 -5 3.5 -8.5t8.5 -3.5h112v-50h-112q-5 0 -8.5 -3.5t-3.5 -8.5v-25q0 -5 3.5 -9t8.5 -4h112v-87q0 -5 3.5 -8.5t9.5 -3.5h24
q6 0 9.5 3.5t3.5 8.5v87h112q5 0 8.5 4t3.5 9v25q0 5 -3.5 8.5t-8.5 3.5h-112v50h112q5 0 8.5 3.5t3.5 8.5v25q0 5 -3.5 9t-8.5 4z" />
    <glyph glyph-name="xuanzhong1" unicode="&#xe63b;" 
d="M512 748q-91 0 -174 -35.5t-143 -95.5t-95.5 -142.5t-35.5 -174t35.5 -174t95.5 -142.5t143 -95.5t174 -35.5t174 35.5t143 95.5t95 142.5t35 174t-35 174t-95 142.5t-143 95.5t-174 35.5zM758 424l-266 -267v0l-2 -1l-17 -17q-2 -3 -5 -5l-2 -2q-2 -1 -6 -1t-6 1l-2 3
l-6 4l-15 16l-2 3h-1l-163 171q-12 14 -6 20l26 25q7 6 20 -7l156 -164l259 259q13 13 19 6l26 -25q6 -7 -7 -19z" />
    <glyph glyph-name="ershou" unicode="&#xe652;" 
d="M511 559q79 0 141 -49l81 101q-98 77 -222 77q-94 0 -175.5 -45.5t-130.5 -124t-54 -172.5h-92l159 -202l160 202h-97q7 90 73.5 151.5t156.5 61.5zM805 512l-161 -202h97q-7 -89 -73 -151t-157 -62q-78 0 -140 48l-1 1l-81 -101l1 -1q98 -76 221 -76q95 0 176 45.5
t130 124t54 172.5h94z" />
    <glyph glyph-name="daohang" unicode="&#xe642;" 
d="M894 684l-764 -318l316 -132l126 -316z" />
    <glyph glyph-name="xiugai" unicode="&#xe64e;" 
d="M468 481l-133 133l31 32l-177 177l-125 -126l177 -177l32 32l133 -134zM907 42q5 8 6.5 20t1 22t-3 21.5t-3.5 15.5t-2 6v0l-204 205q-33 -3 -64 -20t-52.5 -40t-38 -45t-23.5 -38l-8 -15q184 -192 215 -215q14 -11 35 -13t35 1l14 3q74 64 92 92zM749 0l-167 167
q-7 7 -7 17t7 17t17.5 7t17.5 -7l167 -166q7 -7 7 -17.5t-7.5 -17.5t-17.5 -7t-17 7zM825 76l-167 166q-7 8 -7 18t7 17t17 7t18 -7l166 -167q7 -7 7 -17t-7 -17t-17 -7t-17 7zM386 141q1 6 3 9q4 5 19.5 22.5t46.5 49t63.5 60.5t72 54.5t70.5 33.5q58 -20 122 -5.5
t110 61.5q38 38 55 88.5t10 102.5l-158 -165l-160 26l-50 144l176 192q-54 8 -106 -8.5t-91 -55.5q-49 -50 -62.5 -118t11.5 -129q-15 -69 -89 -149l-123 -131l-4 -4q-36 13 -75.5 4.5t-68.5 -37.5q-41 -41 -41 -99t41 -99t99 -41t99 41q31 31 38.5 73t-8.5 80zM201.5 26.5
q-23.5 23.5 -23.5 57t23.5 57.5t57 24t57 -24t23.5 -57.5t-23.5 -57t-57 -23.5t-57 23.5z" />
    <glyph glyph-name="icon2" unicode="&#xe605;" 
d="M345 315zM626 185h-320q-10 0 -17 -7t-7 -16.5t7 -16.5t17 -7v0h320q7 0 12 3t8 8.5t3 11.5q0 10 -6.5 17t-16.5 7zM626 326h-320v0q-11 0 -17.5 -7t-6.5 -17q0 -6 3.5 -11.5t8.5 -8.5t12 -3h320q5 0 9 2t7 5t5 7t2 9q0 10 -6.5 17t-16.5 7zM626 467h-320q-10 0 -17 -6.5
t-7 -16.5t7 -17t17 -7h320q10 0 16.5 7t6.5 17t-6.5 16.5t-16.5 6.5zM426 568q3 -3 7.5 -5t8.5 -2h184q10 0 16.5 7.5t6.5 17t-6.5 16t-16.5 6.5h-184v0h-7q-16 -6 -16 -23q0 -5 2 -9.5t5 -7.5zM827.5 579.5q-3.5 8.5 -9.5 15t-14.5 10t-17.5 3.5v0h-46v47q0 20 -13.5 33.5
t-31.5 14.5h-457q-18 0 -31.5 -14t-13.5 -34v-565q0 -19 13.5 -33t31.5 -14h47v-47q0 -19 13 -33t32 -14h456q9 0 17.5 4t14.5 10t9.5 15t3.5 18v565q0 10 -3.5 18.5zM238 88v0v573v0h461v0v-25v-524v-24v0h-461zM786 -4v0h-456v47h365q12 0 22.5 6.5t16.5 17.5t6 23v471h46
v-565z" />
    <glyph glyph-name="mima" unicode="&#xe61e;" 
d="M511 285q-22 0 -38 -15.5t-16 -37.5q0 -24 18 -40v-49q0 -15 10.5 -25.5t25.5 -10.5t25 10.5t10 25.5v49q18 16 18 40q0 22 -15.5 37.5t-37.5 15.5v0zM760 445h-35v89q0 89 -63 151.5t-151.5 62.5t-151 -62.5t-62.5 -151.5v-89h-35q-37 0 -63 -26t-26 -63v-338
q0 -37 26 -63t63 -26h498q37 0 63 26t26 63v338q0 37 -26 63t-63 26v0zM511 712q74 0 126 -52t52 -126v-89h-356v89v0q0 74 52 126t126 52v0zM814 18q0 -22 -16 -37.5t-38 -15.5h-498q-22 0 -38 15.5t-16 37.5v338q0 23 16 38.5t38 15.5h498q22 0 38 -15.5t16 -38.5v-338v0z
M814 18z" />
    <glyph glyph-name="xiala1" unicode="&#xe611;" 
d="M517 213l149 149q15 15 7 35t-29 20h-298q-21 0 -29 -20q-3 -6 -3 -12q0 -14 9 -23l149 -149q10 -9 23 -9t22 9z" />
    <glyph glyph-name="iconfontquan" unicode="&#xe6c8;" 
d="M78 431q0 27 9 38.5t40 11.5h128v-500h-55q-22 0 -43.5 0.5t-29.5 0.5q-27 -1 -38 9t-11 38v144q0 11 3.5 16.5t14.5 7.5q4 0 11 3t14 9.5t12 17t5 25.5q0 23 -12.5 36t-26.5 15q-11 2 -16 6.5t-5 15.5v106zM161 526v12v1v1v12q0 20 15.5 37t33.5 17h138v-80h-187z
M976 309q-8 -2 -11.5 -8.5t-3.5 -14.5t3.5 -15.5t11.5 -10.5t12.5 -12t5 -19t-2.5 -19t-9 -13q-20 -12 -20 -27t20 -30q4 -3 7.5 -11t3.5 -16t-4 -14t-14 -6h-54q-6 0 -6.5 1t1.5 3.5t5 5.5t5 7q5 14 0 24t-17 17q-8 4 -11.5 12.5t-3 17.5t3.5 16t9 10q8 3 12 11t4 17
t-3 16.5t-9 10.5q-8 4 -12.5 12t-4.5 18t4 19.5t13 15.5q6 4 10 11t4.5 15t-3 15.5t-12.5 12.5q-10 5 -14.5 14.5t-4.5 19.5t4.5 19t12.5 14q17 9 18.5 24.5t-2.5 28.5q-3 10 -12 18t-23 8h-480v79h563q7 0 12 -5t6.5 -12t-1 -14.5t-9.5 -12.5q-6 -5 -10.5 -13t-5 -16.5
t2.5 -17t11 -12.5q11 -6 16.5 -16.5t5.5 -21t-5.5 -19.5t-15.5 -13q-11 -4 -16 -11.5t-5.5 -16.5t4 -17.5t14.5 -14.5t14.5 -16t4 -20t-5 -18.5t-13.5 -9.5zM846 324q-12 -3 -18.5 -11.5t-7 -17.5t5 -18t16.5 -13q10 -4 15 -12t5.5 -17t-3.5 -17t-12 -12q-25 -12 -26 -29
t19 -27q9 -4 14.5 -12.5t6 -18t-3.5 -17t-13 -10.5q-12 -3 -18.5 -11t-7 -17t5 -18t17.5 -15q8 -4 11.5 -12.5t2.5 -16.5t-5.5 -14.5t-12.5 -6.5h-523v500h529q8 0 12.5 -6.5t5 -14.5t-3.5 -16t-13 -11t-14.5 -10t-6.5 -15.5t4 -16.5t17 -12q9 -4 14.5 -12t6 -16.5t-4 -16
t-14.5 -10.5zM605 257q-5 0 -10.5 1t-2.5 6q1 2 9.5 14t19 25.5t19.5 25.5t11 15q5 8 -6 19q-2 2 -8 6t-11 6q-8 3 -11.5 1t-8.5 -9q-2 -3 -10 -14.5t-17 -24.5t-16.5 -23.5t-8.5 -12.5q-2 -4 -7.5 -3t-7.5 5q-1 2 -9 11.5t-17 21.5t-17.5 22.5t-11.5 14.5q-9 17 -19 11
q-7 -4 -12.5 -8.5t-10.5 -7.5q-10 -7 -3 -18q17 -20 30 -37q11 -14 21 -27t12 -15q2 -4 -4 -4h-12q-5 0 -14.5 -0.5t-17.5 0.5q-8 0 -13 -4t-3 -10q1 -4 1 -12v-12q0 -5 3 -5.5t7 -0.5h58q12 0 12 -5v-19q0 -5 -2 -5h-5h-10h-20h-20h-12q-6 1 -8 -3t-3 -9t0 -9.5t1 -7.5
q0 -13 13 -13h60q5 0 6 -1.5t1 -6.5q1 -5 0.5 -18t-0.5 -17q0 -11 13 -11h32q8 0 8 5v7v33q0 10 9 10h9q7 0 15.5 0.5t16.5 0.5h13q14 0 14 10v22q0 9 -10 9h-58q-10 -2 -10 4q0 3 -0.5 7.5t-0.5 8.5t3.5 6t7.5 2h59q10 0 10 7v24q0 4 -3.5 8t-8.5 4h-34z" />
    <glyph glyph-name="pingjia" unicode="&#xe631;" 
d="M223 207q50 11 99.5 -2.5t89.5 -50.5q18 -19 31.5 -42.5t20 -49t7 -51.5t-4.5 -50q-49 -11 -99 5.5t-89 55.5q-39 37 -52.5 87t-2.5 98v0v0zM802 207q11 -48 -2.5 -98t-51.5 -87q-19 -19 -44.5 -31.5t-53.5 -20.5t-58 -10.5t-59 -0.5h-42v272q-42 5 -79 23
q-28 15 -51.5 36.5t-40 48.5t-26 58t-9.5 65q0 46 18 89q35 -9 64 -26.5t53 -43.5q6 50 32 90.5t65 68.5q40 -28 66 -70t32 -92q23 26 52.5 44.5t64.5 26.5q17 -41 17 -87q0 -33 -9.5 -64t-26.5 -58t-40 -48.5t-51 -36.5v-1q-21 -10 -42 -16t-44 -8v-194q8 29 26 56.5
t42 50.5q19 19 43.5 33.5t50.5 23t53 10.5t51 -3v0v0zM802 207z" />
    <glyph glyph-name="fujin" unicode="&#xe628;" 
d="M407 404l-101 -311l310 102l101 310zM511.5 246q-21.5 0 -37 15.5t-15.5 36.5t15.5 36.5t37 15.5t36.5 -15.5t15 -36.5t-15 -36.5t-36.5 -15.5zM511.5 -147q-87.5 0 -168.5 32q-83 34 -147 98.5t-98 147.5q-33 81 -33 168t33 168q34 83 98 147.5t147 98.5q81 32 168.5 32
t167.5 -32q84 -34 148 -98.5t98 -147.5q33 -81 33 -168t-33 -168q-34 -83 -98 -147.5t-148 -98.5q-80 -32 -167.5 -32zM511.5 694q-79.5 0 -151.5 -30t-128 -86q-76 -75 -103 -177t0 -204t103 -177q56 -56 128 -86t151.5 -30t151.5 30t128 86q76 75 103 177t0 204t-103 177
q-56 56 -128 86t-151.5 30z" />
    <glyph glyph-name="dianpu" unicode="&#xe621;" 
d="M847 196q-38 0 -68.5 20.5t-43.5 53.5q-14 -33 -44 -53.5t-67.5 -20.5t-67.5 20.5t-43 53.5q-14 -33 -44.5 -53.5t-68.5 -20.5q-37 0 -67 20.5t-44 53.5q-13 -33 -43.5 -53.5t-68.5 -20.5q-17 0 -34 5v-247q0 -18 15.5 -34.5t32.5 -16.5h642q17 0 32.5 16.5t15.5 34.5
v247q-17 -5 -34 -5zM879 587h-737l-77 -201q0 -45 33 -77t78 -32q47 0 80 32t33 77q0 -45 32.5 -77t78.5 -32t79 32t33 77q0 -45 32.5 -77t78.5 -32t78.5 32t32.5 77q0 -45 33 -77t79 -32t79.5 32t33.5 77l-80 201v0zM844 588v0l2 -1zM193 621h638q16 0 27 11t11 27t-11 27
t-27 11h-638q-16 0 -27 -11t-11 -27t11 -27t27 -11v0zM157 638z" />
    <glyph glyph-name="dianpu1" unicode="&#xe7d0;" 
d="M839 690l-7 10h-629l-7 -9q-57 -71 -89 -135t-37.5 -110.5t-1 -77.5t16.5 -56q21 -41 59.5 -66t82.5 -25h5q88 4 150 66q55 -62 137 -62q84 0 139 65q83 -66 158 -66q63 0 107 50q26 30 33 73t-4.5 89t-26 87.5t-37 82t-32.5 57t-17 27.5v0zM227 270q-27 0 -54.5 16.5
t-43.5 47.5q-10 19 -13 44.5t2.5 64.5t33 93t75.5 116h578q17 -27 34.5 -59t35 -74.5t27 -80.5t6.5 -74t-22 -58q-30 -34 -70 -34q-28 0 -61.5 15.5t-50 28t-29.5 24.5v167h-50v-180q-39 -53 -106 -53q-31 0 -57 12.5t-36.5 23.5t-17.5 23v174h-49v-173q-10 -12 -22.5 -23.5
t-42.5 -25.5t-64 -15h-3v0zM802 -20q-11 -25 -29 -32h-509q-8 0 -15 2.5t-11.5 6.5t-8.5 9.5t-6.5 10.5t-4.5 9.5t-2.5 7l-0.5 2.5v157h-49v-161q6 -33 30.5 -63t67.5 -30l519 1q7 2 15.5 5.5t25.5 20.5t26 42l1 189h-49v-177v0zM802 -20z" />
    <glyph glyph-name="dingdan1" unicode="&#xe66f;" 
d="M800 -187h-581q-42 0 -88.5 43t-46.5 92v549q0 46 38.5 90.5t84.5 44.5h73v-130h458v130h65q49 0 90.5 -39.5t41.5 -95.5v-553q0 -57 -42 -94t-93 -37v0v0zM772 354q0 7 -5 11.5t-12 4.5h-491q-7 0 -11.5 -4.5t-4.5 -11.5v-33q0 -7 4.5 -11.5t11.5 -4.5h491q7 0 12 4.5
t5 11.5v33v0zM772 190q0 7 -5 11.5t-12 4.5h-491q-7 0 -11.5 -4.5t-4.5 -11.5v-33q0 -6 4.5 -11t11.5 -5h491q7 0 12 5t5 11v33v0zM772 26q0 7 -5 12t-12 5h-491q-7 0 -11.5 -5t-4.5 -12v-32q0 -7 4.5 -12t11.5 -5h491q7 0 12 5t5 12v32v0zM476 567h-130v131h65q0 27 19 46
t46 19h66q27 0 46 -19t19 -46h66v-131h-197v0zM509 708q-17 0 -29 -12t-12 -29t12 -29t29 -12t29 12t12 29t-12 29t-29 12v0v0z" />
    <glyph glyph-name="bf-more" unicode="&#xe638;" 
d="M755.5 355q-27.5 0 -47 -19.5t-19.5 -47t19.5 -47t47 -19.5t47 19.5t19.5 47t-19.5 47t-47 19.5zM755.5 266q-9.5 0 -16 6.5t-6.5 16t6.5 16t16 6.5t16 -6.5t6.5 -16t-6.5 -16t-16 -6.5zM267.5 355q-27.5 0 -47 -19.5t-19.5 -47t19.5 -47t47 -19.5t47 19.5t19.5 47
t-19.5 47t-47 19.5zM267 266q-9 0 -15.5 6.5t-6.5 16t6.5 16t15.5 6.5t15.5 -6.5t6.5 -16t-6.5 -16t-15.5 -6.5zM511.5 355q-27.5 0 -47 -19.5t-19.5 -47t19.5 -47t47 -19.5t47 19.5t19.5 47t-19.5 47t-47 19.5zM511.5 266q-9.5 0 -16 6.5t-6.5 16t6.5 16t16 6.5t16 -6.5
t6.5 -16t-6.5 -16t-16 -6.5zM511.5 777q-99.5 0 -190 -39t-156 -104t-104 -155.5t-38.5 -190t38.5 -190t104 -156t156 -104t190 -38.5t189.5 38.5t155.5 104t104.5 156t39 190t-39 190t-104.5 155.5t-155.5 104t-189.5 39zM511.5 -156q-90.5 0 -172.5 35.5t-141.5 95
t-95 141.5t-35.5 172.5t35.5 172.5t95 141.5t141.5 94.5t172.5 35t172.5 -35t141.5 -94.5t94.5 -141.5t35 -172.5t-35 -172.5t-94.5 -141.5t-141.5 -95t-172.5 -35.5z" />
    <glyph glyph-name="daifahuo" unicode="&#xe646;" horiz-adv-x="1026" 
d="M793 549h34q7 0 11 -6l152 -190q3 -4 3 -9v-233q0 -18 -13 -30.5t-30 -12.5h-53q-5 -41 -34.5 -68.5t-69.5 -30.5v28q32 3 54.5 27t22.5 57t-22.5 57.5t-54.5 27.5v28q40 -3 69.5 -30.5t34.5 -67.5h53q6 0 11 4q4 5 4 11v169h-172v28h172v31l-77 97h-95v28h73l-45 57h-28
v28zM344 694q26 -14 47 -35v0q10 -10 19 -22h154q24 0 40 -16v0q16 -16 16 -39v-33h173v-28h-173v-425h53q6 42 38 70t74 28h8v-28h-8q-35 0 -60 -24.5t-25 -60t25 -60t60 -24.5h8v-28h-8q-42 0 -74.5 28.5t-37.5 70.5h-281q-6 -50 -48 -79v37q21 24 21 55.5t-21 55.5v37
q42 -29 48 -78h200v486q0 11 -8 19v0q-8 8 -20 8h-136q25 -46 25 -99q0 -87 -62 -149q-21 -21 -46 -35v32q15 11 27 23q53 54 53 129.5t-53 128.5v0q-13 12 -28 23v32zM793 464h-33q-18 0 -31.5 -13t-13.5 -32v-95q0 -18 13.5 -31t31.5 -13h33v28h-33q-7 0 -12 4.5t-5 11.5
v95q0 7 5 12t12 5h33v28zM243 721q54 0 101 -27v-32q-46 31 -101 31q-18 0 -34 -3v28q17 3 34 3v0v0zM344 -11q-29 -20 -64 -20q-40 0 -71 25v41q25 -39 71 -39q39 0 64 30v-37zM344 358v-32q-47 -26 -101 -26q-17 0 -34 2v28q17 -3 34 -3q55 0 101 32v0v-1zM344 174v-37
q-25 29 -64 29q-46 0 -71 -38v41q31 25 71 25q35 0 64 -20v0v0zM209 464v36l20 17v119q0 10 7 14t13.5 0t6.5 -14v-126q0 -6 -5 -11zM209 -6q-35 29 -41 74h-43q-23 0 -39.5 16.5t-16.5 39.5v268q-37 53 -37 118q0 87 62 149q48 48 115 59v-28q-55 -11 -96 -51
q-53 -53 -53 -129t53 -129v0q41 -40 96 -51v-28q-65 11 -113 57v-235q0 -12 8.5 -20t19.5 -8h44q6 44 41 73v-41q-14 -21 -14 -46.5t14 -46.5v-41zM209 500l-22 -18l-19 -17q-8 -6 -6 -14t9 -10t14 3l24 20v36zM209 500z" />
    <glyph glyph-name="ma" unicode="&#xe63e;" 
d="M852 536q-2 0 -3 1t-4 1q-3 21 -2 41l-6.5 -4.5t-14 -12.5t-13.5 -19q-62 13 -127.5 -8t-100.5 -73q-39 -58 -93 -78q-15 -5 -54 -8t-55 -9l-59 -16q-2 -1 -21 6t-40.5 12.5t-48 -3t-43.5 -36.5q-20 -35 -32 -49.5t-33 -27.5q-1 0 -10.5 -5.5t-12.5 -7.5t-10.5 -9
t-10 -13t-5 -16.5t-1.5 -23.5q6 21 32 27t53 3.5t49 4.5q23 9 40 30q4 5 13 30t24 42.5t39 17.5q-37 -34 -41 -67q-2 -11 0 -27.5t1 -29t-9.5 -24.5t-24.5 -19t-28 -8l-12 -1q-4 -22 -15 -50q-6 -17 -23.5 -47t-18.5 -33q-2 -7 -1.5 -8.5t2.5 -6.5t3 -10q3 -17 0 -27
q-2 -4 -2 -6t1 -2t3.5 -0.5t4.5 -2.5q3 -1 4 -5.5t1 -7.5v-3l37 7q2 12 -14 26q-23 19 -18 40q4 15 21.5 45t33.5 42q10 8 19.5 12.5t20 8t15.5 6.5q8 4 8 -7q0 -4 -11 -51q-2 -11 -6 -21.5t-7 -17t-7.5 -14t-4.5 -8.5q-2 -3 -2 -4.5t1 -2.5t4 -2t5 -2q3 -2 4 -7t0 -12t0 -9
q0 -4 2 -7t3 -4l2 -2l35 2q4 15 -10 25q-13 11 -5 51q0 1 3 22.5t8 35.5t15 21q9 8 42.5 22t51.5 29q15 12 27 26t16 22l5 8q4 2 11 3t30.5 2.5t47.5 -3.5q65 -10 89.5 -4t44.5 17t33 10q20 -2 43 16t30 19q16 2 19 1t7 -6q5 -8 4 -28q0 -6 -2.5 -12.5t-4.5 -9.5l-2 -4
l-26 1q-2 -17 2 -32l8 -20q9 4 21 14q5 4 11 13t14 12q7 3 8.5 4t2 2t-1.5 4.5t-3 5.5q-4 9 -4.5 25t3.5 23q1 3 3 7t3.5 6t2.5 6t1 9q1 8 -8 17.5t-17 9.5l-59 -2q3 18 4 35q1 10 -6 38q-5 17 -1 23l20 27q2 -12 13 -30q16 -26 16 -45v-7t-0.5 -3.5t0 -1.5t0.5 -1.5t2 -2.5
l8 -13l3 10l5 -12q9 -4 25 7q6 4 9 9.5t3.5 9.5t1 13t0.5 13q6 51 8 57t3 19.5t1 25.5v13l16 44q-18 1 -31 -26z" />
    <glyph glyph-name="wodedingdan" unicode="&#xe623;" 
d="M820 602h-39v58q0 21 -15 36.5t-36 15.5h-526q-21 0 -36 -15.5t-15 -36.5v-624q0 -21 15 -36.5t36 -15.5h61v-52q0 -22 15.5 -40t35.5 -18h504q21 0 36 15.5t15 36.5v624q0 21 -15 36.5t-36 15.5zM433 521h207q26 0 26 -18q0 -11 -7.5 -18.5t-18.5 -7.5h-207
q-11 0 -18.5 7.5t-7.5 18.5q0 18 26 18zM263 499q0 10 7 17t17 7h35q10 0 17 -7t7 -17v-6q0 -10 -7 -17t-17 -7h-35q-10 0 -17 7t-7 17v6zM279 366h361q26 0 26 -18q0 -10 -7.5 -18t-18.5 -8h-361q-11 0 -18.5 8t-7.5 18q0 18 26 18zM279 168q-11 0 -18.5 7.5t-7.5 18.5
q0 18 26 18h361q26 0 26 -18q0 -11 -7.5 -18.5t-18.5 -7.5h-361zM310 -82v66h423q21 0 34.5 15.5t13.5 36.5v522h45v-637l4 -3h-520z" />
    <glyph glyph-name="groupshenqing" unicode="&#xe606;" 
d="M902 24q-8 -75 -69 -179h-225q-13 21 -30 43.5t-46 52.5t-68.5 52t-81.5 27q-14 2 -28.5 10t-14.5 14q0 7 8.5 13.5t16.5 9.5q38 14 73 14q12 0 36.5 -9.5t40.5 -19.5l39 -25v413q0 12 7.5 20.5t17.5 8.5h4q10 0 17.5 -8.5t7.5 -20.5v-240h51v308q0 12 7 20.5t17 8.5h5
q10 0 17 -8.5t7 -20.5v-308h51v209q0 12 7.5 20.5t17.5 8.5h4q10 0 17.5 -8.5t7.5 -20.5v-209h50v140q0 10 5.5 17.5t11.5 7.5h3q6 0 11 -7.5t5 -17.5v-316v0zM953 340q0 31 -19.5 53.5t-47.5 22.5h-3q-9 0 -17 -2q-2 31 -23.5 53t-51.5 22h-4q-13 0 -25 -4v23
q0 33 -22 56.5t-53 23.5h-5q-29 0 -50.5 -21t-24.5 -51q-12 4 -25 4h-4q-31 0 -53.5 -23.5t-22.5 -56.5v-326q-40 17 -65 17q-42 0 -90 -16q-22 -8 -40.5 -26.5t-18.5 -44.5q0 -23 18 -40.5t36 -24.5t34 -9q32 -4 65 -24t56.5 -44.5t42.5 -49.5t28.5 -41t9.5 -17h283
q10 18 24 46.5t39 88.5t28 88q1 4 1 323v0zM546 724h4v82h-5h-239h-4v-82h4h240zM602 547q1 0 3 1v47h-3h-353h-4v-47q2 -1 4 -1h353zM684 736q21 0 34 -13t13 -34v-90h46l1 89q0 42 -25 68.5t-69 26.5h-47h-4v-47h4h47zM484 417v48h-235h-4v-47q2 -1 4 -1h235zM119 149v540
q0 21 13 34t34 13h59h2v47h-2h-59q-47 0 -70.5 -26t-23.5 -69v-534q0 -45 26 -72t73 -27h75v47h-68q-22 0 -40.5 13.5t-18.5 33.5zM481 325h-232q-2 0 -4 -1v-47h4h233l-1 48v0z" />
    <glyph glyph-name="mima1" unicode="&#xe60f;" 
d="M769 389h-397q-1 15 0 42t-1 59.5t5 66.5t20 62.5t43 47t73 19.5q118 5 143 -122q9 -47 4 -91l85 -1q1 7 1 17.5t-2.5 41t-9 58.5t-22.5 62t-40 58.5t-65 41.5t-94 17q-50 -2 -89.5 -18t-62.5 -40.5t-39.5 -55.5t-21.5 -63.5t-9 -65t-1.5 -60t1.5 -47.5t-1 -29h8
q-42 0 -72 -29.5t-30 -71.5v-337q0 -42 30 -72t72 -30h472q42 0 71.5 30t29.5 72v337q0 42 -29.5 71.5t-71.5 29.5zM566 95v-77q0 -14 -9.5 -24t-23.5 -10t-24 10t-10 24v77q-34 20 -34 58q0 28 20 48t48 20t47.5 -20t19.5 -48q0 -38 -34 -58z" />
    <glyph glyph-name="daipingjia" unicode="&#xe61f;" 
d="M567 423h-108v-107h108v107zM764 423h-108v-107h108v107zM64 710v-681h574v-144l126 144h195v681h-895zM923 65h-177l-72 -90v90h-574v610h823v-610zM369 423h-107v-107h107v107z" />
    <glyph glyph-name="shoucang1" unicode="&#xe676;" 
d="M729 266l52 -321l-274 152l-274 -152l52 321l-221 227l306 46l137 293l138 -293l305 -46z" />
    <glyph glyph-name="shoucang2" unicode="&#xe620;" 
d="M759 6l-247 131l-247 -131l47 276l-199 194l276 41l123 250l124 -250l274 -41l-198 -194zM187 452l163 -158l-39 -224l201 106l201 -106l-38 224l162 158l-224 33l-101 203l-100 -203z" />
    <glyph glyph-name="tuichu" unicode="&#xe699;" 
d="M859 423l-262 262q-6 6 -14.5 6t-14.5 -6.5t-6 -15t6 -14.5l226 -226h-439q-8 0 -14.5 -6t-6.5 -14.5t6.5 -15t14.5 -6.5h439l-226 -226q-6 -6 -6 -14.5t6 -14.5t14.5 -6t14.5 6l262 262q6 6 6 14.5t-6 14.5zM388 155v0h-158q-5 0 -9 0.5t-7 1t-5 1t-3.5 2.5t-2 2.5t-1 4
t-0.5 4.5v6.5v7.5v453q0 17 4.5 20t26.5 3h155v0q8 0 14 6t6 15t-6 15t-14 6v0h-181q-19 0 -32.5 -13.5t-13.5 -32.5v-497q0 -19 13.5 -32.5t32.5 -13.5h181v0q8 0 14 6t6 14.5t-6 14.5t-14 6z" />
    <glyph glyph-name="fangwu" unicode="&#xe6db;" 
d="M547 133q17 9 52 4q1 -1 7 -8.5t8 -13t0 -12.5q-1 -3 -6 -9t-7 -8q-12 -8 -35 -6.5t-28 15.5q-4 9 3 19t6 19zM667 703q6 6 7 16.5t0 18.5t4 15t17 9q7 1 17.5 0t25.5 -3.5t24 -2.5q80 -8 81 -9q16 -13 15.5 -44.5t-6 -60t1.5 -56.5q0 -2 -1.5 -6.5t-3 -8t-4.5 -5.5
q6 -7 22.5 -22.5t23.5 -22.5q5 -5 15 -14.5t17.5 -17t12.5 -13.5q27 -33 24 -43q-1 -4 -14.5 -13t-20.5 -11q-6 0 -24.5 1t-21.5 -3q1 -28 8 -105.5t6 -121.5q0 -12 -1.5 -50t-1 -64t2.5 -47q-5 -9 -5.5 -27t-1.5 -22q-5 -6 -11 -7.5t-19 0t-16 1.5q-2 0 -52 -2
q-166 -10 -232 -7q-121 5 -148 4q-5 0 -17 -1.5t-18 -1.5q-7 0 -24 2.5t-26 3.5q-13 1 -32 0t-39.5 0t-37.5 3.5t-26.5 9t-6.5 16.5q-2 3 -9 5.5t-8 4.5q-10 55 -9.5 126t5 117t14.5 127q2 15 3 22q-8 1 -31.5 2t-35 2t-26 6.5t-20.5 15.5q15 31 74 90q7 6 21 22t23 25
q44 40 132.5 114t128.5 110q3 2 11.5 10.5t13 12t13 8t17 4t18.5 -5.5q3 -2 8.5 -7.5t7.5 -6.5q8 -6 33 -21t38 -24q7 -5 29.5 -22.5t34.5 -24.5zM499 770q7 -2 9 -1q1 3 -3 4q-6 1 -6 -3zM495 734q12 2 32 26q-7 0 -12.5 -4.5t-10.5 -11.5t-9 -10zM540 750
q-15 -15 -50 -46.5t-52 -48.5q-4 -1 -17 0q-41 -34 -54 -51q-36 -28 -88.5 -90.5t-72.5 -80.5q22 16 55.5 49t44.5 43q0 2 1.5 7t-1.5 6q45 51 93 85q2 0 0.5 2.5t-0.5 5.5q10 7 54 17q1 3 -2 5t-2 5q13 13 43.5 38t43.5 39q1 1 3.5 2t4 1.5t3 2t2 3t0.5 3.5q-1 1 -3.5 2.5
t-5.5 0.5zM471 734q1 1 4 3t4.5 3.5t-0.5 4.5q-1 -1 -4.5 -3.5t-4.5 -3.5t1 -4zM553 724q7 7 18 3q0 10 -13 5q-9 -4 -5 -8zM738 718q1 1 3 4.5t2 4.5q-3 1 -5 -1t-2 -4.5t2 -3.5zM762 719q4 1 6.5 2.5t2.5 5.5q-5 0 -9 -8zM495 651q16 0 28.5 12t19.5 14q5 9 20 21.5
t19 21.5q-1 0 -2.5 2t-4.5 1q-3 -2 -12 -9t-13 -10t-11.5 -9.5t-12 -10.5t-11 -10t-11 -11.5t-9.5 -11.5zM749 703q1 1 6.5 6t6.5 9q-18 -9 -13 -15zM782 692q9 5 17 11.5t5 9.5q-2 -2 -10.5 -9t-11.5 -12zM593 709q-5 -6 -22.5 -24t-25.5 -30q6 -1 12 2t5 9q10 6 24 20
l18 18q-7 5 -11 5zM451 690q0 2 3 2.5t2 1.5q-4 5 -7 0q-1 -3 2 -4zM616 692q-9 0 -21 -17t-15 -18q1 -1 7 -5.5t12 -4.5q1 1 5 6q35 38 12 39zM764 670l4 4t5.5 5t3.5 5q-6 -1 -10 -6t-3 -8zM340 635q-1 -5 -8 -10.5t-11.5 -10t-1.5 -8.5q10 12 37 33.5t37 34.5q0 2 -3 1
q-33 -31 -50 -40zM616 632q5 7 35 33q0 2 -8 6q-2 -5 -10 -12.5t-13.5 -14.5t-3.5 -12zM667 654h-7q-4 -5 -17 -18t-19.5 -23t-4.5 -20q8 8 25.5 26t26.5 28q0 2 -1.5 4t-2.5 3zM684 636q-29 -27 -50 -53q0 -1 1.5 -4.5t2.5 -4.5q-8 -9 -13 -12q2 -39 15 -53q3 4 3 14.5
t4 16.5q-9 -1 -9 2q-2 4 -3 7t-1.5 5t1 5t2 3.5t4 4.5t4.5 5q4 5 25 25.5t27 33.5q-1 1 -13 5zM519 617q0 -58 11 -95q10 -2 26 2t24 4q-6 58 -22 91q-14 3 -39 -2zM710 616l-15.5 -15.5t-19.5 -21t-11 -17.5q6 5 18.5 15.5t22 19.5t14.5 17q-2 0 -4 1t-5 1zM434 514
q2 0 18 2t27 1q-1 74 -10 96q-10 -4 -16.5 -12t-10 -20t-4.5 -21.5t-2 -24t-2 -21.5zM393 602q-3 -4 -21 -20.5t-25 -26.5q10 -1 21.5 12t26.5 12q7 11 6 23h-8zM712 579q15 0 17 -5q4 1 8 3.5t7.5 6t6.5 5.5q-1 0 -6.5 5t-10.5 7q-1 -1 -6 -4.5t-7.5 -5t-5 -5t-3.5 -7.5z
M282 586q-6 -7 -25.5 -23t-27.5 -27q24 12 61 50h-8zM716 529q34 22 57 45q-2 0 -4 2t-5 2q-6 -8 -24 -23.5t-24 -25.5zM360 537q-1 0 -1 -1.5t1 -3t0 -3.5q-16 -12 -42 -41t-41 -41q0 -2 -3 -5.5t-3 -7.5q12 8 32.5 29t34.5 29q6 11 21.5 23.5t26 25.5t11.5 30q-1 0 -2.5 1
t-2.5 0q-4 -7 -16 -17.5t-16 -17.5zM714 555q6 6 5 8q-7 2 -10 -3q-2 -5 5 -5zM786 529q1 1 6 5t7.5 7t3.5 6q0 7 -11.5 12.5t-16.5 -7.5q1 -1 3 -2t3 -2t2 -2.5t1 -3.5q-70 -49 -120 -103q6 1 12 4t9 5.5t9.5 8t8.5 7.5q28 24 39 28q3 9 21 21t23 16zM812 534
q-10 -10 -35 -28.5t-34 -26.5q-1 -2 -3 -6.5t-4 -6.5q-3 -3 -11 -7.5t-13 -9t-6 -10.5q13 7 26 16t21.5 16t23 19t20.5 17q2 2 10 7t11.5 9.5t2.5 9.5q-4 2 -9 1zM318 514q10 3 12 11h-5q-1 -3 -4 -6t-3 -5zM208 491q1 0 9 7.5t11 12t1 7.5q-2 -1 -8 -8t-9 -11t-4 -8z
M834 517q-48 -37 -92 -78q12 1 22 10t18 11q6 10 30 27t28 28q-1 0 -2.5 1t-3.5 1zM305 500q8 0 9 9q-3 0 -4.5 -1.5t-2.5 -4t-2 -3.5zM325 458q7 3 12 7.5t10 11.5t8 10q2 2 7.5 6t8.5 7t2 7q-3 -3 -21.5 -20.5t-26.5 -28.5zM849 499q-2 -1 -69 -60q5 0 10 1.5t7 1.5
q7 8 29 25.5t30 30.5l-2.5 0.5t-4.5 0.5zM567 447q5 -6 13 -5q1 13 20 29.5t23 24.5q-10 -3 -19 -9t-13.5 -10.5t-12.5 -15t-11 -14.5zM388 494q-6 -7 -18 -17.5t-20 -20t-12 -21.5q4 0 8 1t7 1q5 10 23 25t23 25q-1 2 -5.5 4t-5.5 3zM501 446l7.5 -1.5t7 2.5t6 4.5t4.5 5.5
t4 5q22 23 25 26q-1 2 -4 3q-11 -4 -19.5 -11t-17.5 -18.5t-13 -15.5zM427 490q-5 -6 -15.5 -16t-18 -18.5t-13.5 -17.5q10 -1 17 1q5 11 20.5 26.5t20.5 21.5q-9 3 -11 3zM162 443q7 4 13 9.5t9.5 9.5t9.5 12l9 12q-8 -6 -15 -13t-14.5 -16t-11.5 -14zM503 486
q-23 -14 -43 -44q12 -1 24 12q5 6 26 32h-7zM425 441q21 11 46 42q-11 -1 -18.5 -6t-11 -9.5t-8.5 -14t-8 -12.5zM864 483q-7 -8 -22.5 -22t-22.5 -22q25 11 52 42l-2.5 1t-4.5 1zM886 466q-8 -1 -13 -5t-10.5 -11t-8.5 -9q16 -1 41 2q1 6 -9 23zM232 429q6 0 9.5 3t4 5
t3.5 8q6 0 9.5 3t6 7.5t4.5 6.5q-7 -3 -13 -8t-13.5 -14t-10.5 -11zM653 405q-19 1 -63.5 3t-68.5 3q-32 1 -69.5 -1.5t-83 -6.5t-71.5 -6h-22.5t-22.5 -0.5t-21 -3.5q-45 -211 -17 -397q49 -5 120 -3q5 27 15 128t26 150q27 7 94 8.5t78 2.5q97 7 133 -7q5 -6 8.5 -13.5
t5.5 -13.5t3.5 -16t2 -14.5t1 -16.5t0.5 -15q5 -90 13 -197q15 0 124 9q17 240 -11 406h-87.5t-86.5 1zM417 245q-6 -21 -11 -48.5t-7 -43.5t-5 -51.5t-4 -43.5q-1 -5 -2.5 -16.5t-2.5 -18t0 -16t5 -17.5q39 1 129.5 -2t138.5 -1q6 38 0 113q-1 15 -1.5 49.5t-3.5 57.5
t-11 41q-23 6 -111.5 1.5t-113.5 -4.5z" />
    <glyph glyph-name="wodeicon" unicode="&#xe60b;" 
d="M501 -20q-201 0 -305 43.5t-104 127.5t98.5 146t249.5 74l3 -34q-136 -11 -226.5 -64t-90.5 -122q0 -65 98 -101t277 -36t277.5 36t98.5 101q0 69 -91.5 122.5t-227.5 63.5l3 34q152 -11 251 -73.5t99 -146.5t-104.5 -127.5t-305.5 -43.5zM566 339l-14 31q46 21 74.5 74
t28.5 118q0 84 -45 143.5t-108.5 59.5t-108.5 -59.5t-45 -143.5q0 -64 27.5 -116.5t73.5 -74.5l-15 -31q-55 27 -87.5 87t-32.5 135q0 98 55 167.5t132.5 69.5t132.5 -69.5t55 -167.5q0 -75 -34 -136.5t-89 -86.5zM444 354zM427 354q0 7 5 12t12 5t12 -5t5 -12t-5 -12
t-12 -5t-12 5t-5 12zM559 354zM542 354q0 7 5 12t12 5t12 -5t5 -12t-5 -12t-12 -5t-12 5t-5 12z" />
    <glyph glyph-name="duoxuanbuxuan" unicode="&#xe63c;" 
d="M511.5 782q80.5 0 154.5 -32q72 -30 127 -85t85 -126q31 -74 31 -155t-31 -155q-30 -71 -85 -126t-127 -85q-74 -32 -154.5 -32t-154.5 32q-71 30 -126 85t-86 126q-31 74 -31 155t31 155q31 71 86 126t126 85q74 32 154.5 32zM512 831q-91 0 -174 -35.5t-142.5 -95.5
t-95 -142.5t-35.5 -173.5t35.5 -173.5t95 -142.5t142.5 -95.5t173.5 -35.5t173.5 35.5t142.5 95.5t95 142.5t35.5 173.5t-35.5 173.5t-95 142.5t-142.5 95.5t-173 35.5v0z" />
    <glyph glyph-name="wode" unicode="&#xe608;" 
d="M512 291q82 0 145 65t71 165q6 71 -20.5 134.5t-78.5 103t-117 39.5t-117 -39.5t-78.5 -103t-20.5 -134.5q8 -100 71 -165t145 -65v0zM510 258q-117 0 -217 -28.5t-158 -77t-58 -106.5q0 -30 31.5 -44t114.5 -23t289 -9q215 0 291 9q82 9 113 23t31 44q0 57 -59 106
t-159.5 77.5t-218.5 28.5v0zM510 258z" />
    <glyph glyph-name="tuichu1" unicode="&#xe609;" 
d="M708 367v87h-220v87h220v87l132 -130l-132 -131v0zM664 411v-174h-219v-130l-264 130v565h483v-218h-44v174h-351l176 -87v-391h175v131h44v0zM664 411z" />
    <glyph glyph-name="erweima2" unicode="&#xe635;" 
d="M862 358v-177h-66v178h-148q-47 0 -79.5 -32.5t-32.5 -78.5v-195q0 -44 30 -76t74 -35v245h67v-68h251v129q0 41 -27.5 72.5t-68.5 37.5zM707 53h89v-111h-89v111zM862 -57q41 6 68.5 37t27.5 73h-96v-110zM376 826h-199q-46 0 -78.5 -32.5t-32.5 -78.5v-195
q0 -46 32.5 -78.5t78.5 -32.5h199q47 0 79.5 32.5t32.5 78.5v195q0 46 -32.5 78.5t-79.5 32.5zM276.5 539q-32.5 0 -55.5 23t-23 55.5t23 56t55.5 23.5t55.5 -23.5t23 -56t-23 -55.5t-55.5 -23zM376 359h-199q-46 0 -78.5 -32.5t-32.5 -78.5v-195q0 -46 32.5 -78.5
t78.5 -32.5h199q47 0 79.5 32.5t32.5 78.5v195q0 46 -32.5 78.5t-79.5 32.5zM276.5 72q-32.5 0 -55.5 23t-23 55.5t23 56t55.5 23.5t55.5 -23.5t23 -56t-23 -55.5t-55.5 -23zM847 826h-199q-47 0 -79.5 -32.5t-32.5 -78.5v-195q0 -46 32.5 -78.5t79.5 -32.5h199
q46 0 78.5 32.5t32.5 78.5v195q0 46 -32.5 78.5t-78.5 32.5zM747.5 539q-32.5 0 -55.5 23t-23 55.5t23 56t55.5 23.5t55.5 -23.5t23 -56t-23 -55.5t-55.5 -23z" />
    <glyph glyph-name="pingjia1" unicode="&#xe66c;" 
d="M823 124q80 99 96.5 225t-38.5 242q-53 109 -152 172t-216 65q-76 -1 -147 -30.5t-124 -79t-90.5 -116t-46.5 -142t7 -156.5q24 -98 87 -173.5t144.5 -113t178 -37t182.5 46.5q46 -24 155 -82q17 -9 29.5 4t4.5 31q-22 45 -70 144zM320.5 311q-29.5 0 -50.5 21.5
t-21 52.5t21 52.5t50.5 21.5t50.5 -21.5t21 -52.5t-21 -52.5t-50.5 -21.5zM535.5 311q-29.5 0 -50.5 21.5t-21 52.5t21 52.5t50.5 21.5t50 -21.5t20.5 -52.5t-20.5 -52.5t-50 -21.5zM750.5 311q-29.5 0 -50.5 21.5t-21 52.5t21 52.5t50.5 21.5t50.5 -21.5t21 -52.5
t-21 -52.5t-50.5 -21.5z" />
    <glyph glyph-name="xiugai1" unicode="&#xe64f;" 
d="M512 832q-91 0 -174 -35.5t-143 -95.5t-95.5 -143t-35.5 -174t35.5 -174t95.5 -143t143 -95.5t174 -35.5t174 35.5t143 95.5t95.5 143t35.5 174t-35.5 174t-95.5 143t-143 95.5t-174 35.5v0zM261 133l55 147l87 -86l-142 -61v0zM426 206l-94 97l261 258l90 -93l-257 -262
v0zM758 539l-52 -53l-95 94l47 46q2 2 6.5 5t17 3.5t25 -8.5t25 -20.5t19.5 -18.5l7 -7q1 -3 2.5 -8t2 -16t-4.5 -17v0zM758 539z" />
    <glyph glyph-name="gonggao-copy" unicode="&#xe622;" 
d="M839 78q-12 0 -18 10q-4 7 -2 15t9 12q71 41 112 112q43 73 43 157t-42 157q-41 70 -110 111q-8 5 -10 13t2.5 15t12.5 9t15 -2q79 -47 125 -126q47 -82 47 -177t-48 -177q-47 -80 -126 -127q-5 -2 -10 -2v0zM732 208q-12 0 -17 10q-5 8 -2.5 16t9.5 12q36 21 57 57
q22 38 22 81t-21 80q-21 36 -57 58q-7 4 -9 12t2 15t12 9t16 -2q44 -26 71 -71q26 -47 26 -101t-27 -101q-26 -45 -72 -72q-5 -3 -10 -3v0zM575 -67q-38 0 -78 29l-39 27q-7 5 -8.5 13t3.5 15t13 8.5t15 -3.5l39 -27q12 -9 31.5 -16.5t32.5 -3.5q5 2 7 4t4.5 11.5t3.5 26.5
v733q-1 16 -4.5 25.5t-6 12t-8.5 4.5q-12 6 -30 -2t-29 -17v0l-241 -180q-24 -20 -58.5 -30.5t-50.5 -11.5t-27 0q-39 0 -68 -26t-34 -64l-1 -14v-126l1 -14q5 -39 34 -64.5t68 -25.5h2q31 0 64.5 -11t46 -17.5t20.5 -11.5q4 -3 11 -8.5t25 -21t34 -33t34.5 -44t31.5 -54.5
q4 -7 1 -15t-10.5 -11.5t-15.5 -0.5t-12 10q-17 39 -49.5 76t-47.5 49t-25 19q-6 4 -17 10t-39 14.5t-54 8.5v0q-54 0 -94.5 36t-47.5 90v0l-1 17v130l1 17q7 53 47.5 89t94.5 36h1q8 0 20 0.5t41 8.5t49 24v1l241 180q14 11 31 19q40 19 70 5q19 -8 28 -23q12 -19 14 -54
v-1v-734v-1q0 -19 -2.5 -32t-12.5 -27t-27 -20q-10 -4 -22 -4v0v0zM575 -67z" />
    <glyph glyph-name="yijian" unicode="&#xe62f;" 
d="M405 570q20 0 37.5 -10.5t27 -25t16 -29t8.5 -25.5l3 -10v-92q-2 -9 -6 -21.5t-20 -39.5t-37 -39l-1 -19q1 0 1 -9t2.5 -23t8.5 -28.5t21.5 -26.5t38.5 -15q37 -6 73.5 -23t54 -30t29.5 -24q7 -7 13 -37.5t8.5 -54t2.5 -26.5h-625q1 4 -0.5 22.5t4.5 49t18 46.5
q19 18 65 43.5t99 33.5q23 3 37.5 15t19.5 26t6 28t0.5 23t-0.5 8q1 1 1 5t-1 10l-1 5q-7 6 -17 17t-27.5 39.5t-17.5 51.5v85q1 5 2 14t7 32t15 40.5t27.5 31.5t41.5 14zM743 807q101 0 161 -49.5t60 -125.5t-59.5 -123t-161.5 -47q-24 0 -49 3q-18 -22 -41.5 -37.5
t-45 -21t-40.5 -8t-30 -1.5l-11 1q20 10 34.5 23t21 25t9 23.5t1 19t-5.5 10.5q-87 51 -87 133q0 74 70.5 124.5t173.5 50.5z" />
    <glyph glyph-name="haibao" unicode="&#xe624;" 
d="M735 745h-446q-21 0 -36 -15.5t-15 -37.5v-394q0 -22 15 -37.5t36 -15.5h446q21 0 36 15.5t15 37.5v394q0 22 -15 37.5t-36 15.5v0v0zM289 709h446q7 0 12 -5t5 -12v-211q-65 56 -133 56q-25 0 -54.5 -14.5t-48.5 -28.5t-53 -42q-26 -21 -40 -31.5t-33.5 -21.5t-33.5 -11
q-43 0 -84 42v262q0 7 5 12t12 5v0v0zM735 280h-446q-7 0 -12 5.5t-5 12.5v85q42 -31 84 -31q19 0 43 12t40 24t46 36q30 25 47 38t42.5 26t44.5 13q21 0 42.5 -7.5t36 -16.5t28.5 -20.5t18.5 -16.5t7.5 -8v1v-135q0 -7 -5 -12.5t-12 -5.5v0v0zM409 495q28 0 48.5 21
t20.5 50.5t-20.5 50.5t-49 21t-48.5 -21t-20 -50.5t20 -50.5t49 -21v0v0zM409 602q14 0 24 -10.5t10 -25t-10 -25t-24 -10.5t-24 10.5t-10 25t10 25t24 10.5v0v0zM409 602zM725 125h-439q-11 0 -19 11.5t-8 23.5t8 23t19 11h439q11 0 19.5 -11t8.5 -23t-8.5 -23.5
t-19.5 -11.5zM725 9h-439q-11 0 -19 9t-8 20.5t8 20.5t19 9h439q11 0 19.5 -9t8.5 -20.5t-8.5 -20.5t-19.5 -9zM814 -124h-604q-68 0 -116 48.5t-48 116.5v686q0 68 48 116.5t116 48.5h604q68 0 116 -48.5t48 -116.5v-686q0 -68 -48 -116.5t-116 -48.5zM210 837
q-45 0 -77.5 -32.5t-32.5 -77.5v-686q0 -45 32.5 -77.5t77.5 -32.5h604q45 0 77.5 32.5t32.5 77.5v686q0 45 -32.5 77.5t-77.5 32.5h-604z" />
    <glyph glyph-name="haibao1" unicode="&#xe630;" 
d="M776 775h-528q-44 0 -75.5 -31.5t-31.5 -76.5v-477v0v-89q0 -45 31.5 -76.5t75.5 -31.5h349v0v0h179q44 0 75.5 31.5t31.5 76.5v566q0 45 -31.5 76.5t-75.5 31.5zM248 724h528q23 0 39.5 -16.5t16.5 -40.5v-369l-110 136q-7 8 -18 9t-19 -7l-200 -180l-71 119
q-6 10 -17 12t-20 -5l-185 -140v425q0 24 16.5 40.5t39.5 16.5zM192 101v77l193 146l72 -120v-1l95 -159h-304q-23 0 -39.5 16.5t-16.5 40.5zM776 44h-164l-100 168l187 168l133 -163v-116q0 -24 -16.5 -40.5t-39.5 -16.5zM392 475q41 0 70.5 29.5t29.5 70.5t-29.5 70
t-70.5 29t-70 -29t-29 -70t29 -70.5t70 -29.5zM392 623q20 0 34 -14t14 -34t-14 -34t-34 -14t-34 14t-14 34t14 34t34 14z" />
    <glyph glyph-name="yue" unicode="&#xe7a9;" 
d="M512 -63q-206 0 -299.5 74.5t-93.5 230.5q0 127 85 244.5t206 160.5h203q121 -43 206.5 -160.5t85.5 -244.5q0 -156 -94 -230.5t-299 -74.5v0v0zM621 275v0q13 0 23 9.5t10 23.5t-10 24t-23 10v0h-68v1.5v0.5l79 82q16 18 -6 40q-10 10 -24 11.5t-22 -6.5l-68 -74l-73 75
q-7 7 -19 5t-21.5 -12t-11.5 -22t5 -19l75 -76q-2 -2 -3 -6h-61v0v0q-14 0 -23.5 -10t-9.5 -24t9.5 -23.5t23.5 -9.5v0v0h67v-34h-67v0v0q-14 0 -23.5 -10t-9.5 -24t9.5 -24t23.5 -10v0v0h67v-34h1q-1 -4 -1 -8q0 -17 12 -29.5t29.5 -12.5t30 12.5t12.5 29.5q0 4 -1 8v0v34
h68q13 0 23 10t10 24t-10 24t-23 10v0h-68v34h68v0v0zM671 781l-7 -8q0 -1 -0.5 -1h-0.5l-59 -75h-201l-59 75q-1 0 -1 0.5t-1 0.5l-6 8l1 3q-1 5 -1 6q0 17 16 24l1 1q82 17 150 17q32 0 69.5 -4t59.5 -8l22 -5l1 -1q16 -7 16 -24q0 -1 -2 -6l2 -3v0v0zM671 781z" />
    <glyph glyph-name="2xuanzhong" unicode="&#xe63d;" 
d="M822 695q-63 62 -143 95.5t-168 33.5t-168.5 -33.5t-143 -95.5t-95.5 -142.5t-33 -168.5t33 -168t95.5 -142.5t143 -96t168.5 -33.5t168 33.5t142.5 96t95.5 142.5t33 168t-33 168.5t-95 142.5v0v0zM752 513l-299 -300v0h-1v0q-9 -8 -20 -8q-5 0 -9 1v0q-2 1 -4 1
q-5 3 -8 6v0l-142 142q-9 9 -9 21t9 21t21 9t21 -9l121 -121l278 279q9 9 21 9t21 -9t9 -21t-9 -21v0v0zM752 513z" />
    <glyph glyph-name="sort" unicode="&#xe626;" 
d="M377 812h-223q-31 0 -53 -22t-22 -53v-223q0 -31 22 -53t53 -22h223q31 0 53 22v0q22 22 22 53v223q0 31 -22 53t-53 22zM416 514q0 -16 -12 -27v0q-11 -12 -27 -12h-223q-16 0 -27.5 11.5t-11.5 27.5v223q0 16 11.5 27.5t27.5 11.5h223q16 0 27.5 -11.5t11.5 -27.5v-223
zM618 439h224q31 0 53 22t22 53v223q0 31 -22 53t-53 22h-224q-31 0 -53 -22t-22 -53v-223q0 -31 22 -53t53 -22zM580 737q0 16 11 27.5t27 11.5h224q16 0 27 -11.5t11 -27.5v-223q0 -16 -11 -27.5t-27 -11.5h-224q-16 0 -27 11.5t-11 27.5v223zM377 331h-223q-31 0 -53 -22
v-1q-22 -22 -22 -53v-223q0 -31 22 -53t53 -22h223q31 0 53 22t22 53v223q0 32 -22 54t-53 22zM416 32q0 -16 -11.5 -27.5t-27.5 -11.5h-223q-16 0 -27.5 11.5t-11.5 27.5v223q0 17 11 28v0q12 11 28 11h223q16 0 27.5 -11.5t11.5 -27.5v-223v0zM937 4l-51 34q32 48 32 106
q0 78 -55 133t-133 55t-133 -55t-55 -133t55 -133v0q55 -55 133 -55q77 0 132 54l55 -36q6 -5 13.5 -3.5t12 8t3 13.5t-8.5 12v0zM730 -8q-63 0 -107.5 44.5t-44.5 107.5t44.5 107.5t107.5 44.5t107.5 -44.5t44.5 -107.5t-44.5 -107.5t-107.5 -44.5v0z" />
    <glyph glyph-name="shangla" unicode="&#xe60a;" 
d="M725 299l-213 213l-213 -213h426z" />
    <glyph glyph-name="fenlei" unicode="&#xe629;" 
d="M874 673l-100 100q-27 27 -65.5 27t-66.5 -27l-99 -100q-27 -27 -27 -65.5t27 -66.5l99 -99q28 -28 66.5 -28t65.5 28l100 99q27 28 27 66.5t-27 65.5zM840 555l-79 -79q-22 -22 -52.5 -22t-52.5 22l-79 79q-22 22 -22 52.5t22 52.5l79 79q22 21 52.5 21t52.5 -21l79 -79
q22 -22 22 -52.5t-22 -52.5zM368 360h-140q-39 0 -66.5 -27t-27.5 -66v-140q0 -39 27.5 -66.5t66.5 -27.5h140q39 0 66.5 27.5t27.5 66.5v140q0 39 -27.5 66t-66.5 27zM228 444h140q39 0 66.5 27t27.5 66v141q0 38 -27.5 65.5t-66.5 27.5h-140q-39 0 -66.5 -27.5
t-27.5 -65.5v-141q0 -39 27.5 -66t66.5 -27zM779 360h-141q-39 0 -66 -27t-27 -66v-140q0 -39 27 -66.5t66 -27.5h141q38 0 65.5 27.5t27.5 66.5v140q0 39 -27.5 66t-65.5 27z" />
    <glyph glyph-name="huiyuanqia" unicode="&#xe6d0;" 
d="M888 666h-752q-56 0 -96 -46q-34 -40 -34 -85v-451q0 -50 35.5 -86t86.5 -36h768q51 0 87 36t36 86v454q0 50 -40 89t-91 39v0zM136 625h752q34 0 62 -26.5t28 -60.5v-49h-932v46q0 30 26.5 60t63.5 30v0zM896 3h-768q-34 0 -58 24t-24 57v308h932v-308q0 -33 -24 -57
t-58 -24v0zM354 102l-79 214h-36l98 -250h34l97 250h-36zM502 316h33v-250h-33v250v0zM759 300q-12 9 -27 12q-15 4 -32 4h-105v-250h33v100h63q47 0 70.5 19.5t23.5 57.5q0 21 -7 35t-19 22v0zM747 222q-3 -8 -10 -15q-7 -5 -18 -8t-28 -3h-63v90h66q12 0 22 -2t17.5 -7
t12 -13.5t4.5 -21.5q0 -11 -3 -20v0zM747 222z" />
    <glyph glyph-name="24" unicode="&#xe610;" 
d="M505.5 896q-102.5 0 -196 -40t-161.5 -108t-108 -161.5t-40 -196t40 -196.5t108 -161.5t161.5 -107.5t196 -40t196.5 40t161.5 107.5t107.5 161.5t40 196.5t-40 196t-107.5 161.5t-161.5 108t-196.5 40zM752 316l-9 -9q-19 -15 -49 -41t-93.5 -87.5t-93.5 -101.5
q-30 40 -89.5 97.5t-103 95t-44.5 37.5l-9 9q-49 50 -49 119.5t49 117.5q50 49 119.5 49t117.5 -49l9 -9l9 9q49 49 118.5 49t117.5 -49q48 -48 48 -117.5t-48 -119.5zM505 163q-81 87 -206 193l-8 8q-32 32 -32 79t31.5 78.5t78.5 31.5t79 -32l59 -59l59 59q32 32 78.5 32
t78.5 -31.5t32 -78.5t-32 -79l-11 -8q-128 -109 -207 -193z" />
    <glyph glyph-name="daifahuo1" unicode="&#xe65b;" 
d="M877 325l-3 7q-2 6 -5 10l-75 156l-27 50h-109v54q0 37 -37 37h-54v-25q0 -43 -16 -81q-17 -37 -45.5 -65.5t-65.5 -44.5q-39 -16 -81 -16q-43 0 -82 16q-37 16 -66 45q-28 28 -45 65q-17 38 -17 81q0 4 1 6q-3 -6 -3 -12v-420q0 -26 23 -39q17 35 51 57t75 22
q44 0 76.5 -21.5t48.5 -60.5h146q16 39 47 60t74 21q82 0 116 -81h36q36 0 36 41v131q0 3 -1 7h2zM640 365v128h91l36 -128h-127zM690 187q-39 0 -66.5 -27t-27.5 -65.5t27.5 -66t66.5 -27.5t66.5 27.5t27.5 66t-27.5 65.5t-66.5 27zM299 187q-39 0 -66.5 -27t-27.5 -65.5
t27.5 -66t66.5 -27.5t66.5 27.5t27.5 66t-27.5 65.5t-66.5 27zM250 506q21 -21 49 -32.5t60 -11.5q31 0 59 11.5t49 32.5t33.5 49t12.5 59q0 32 -12.5 59.5t-33.5 48.5t-49 33t-59 12q-32 0 -60 -12t-49 -33t-33.5 -48.5t-12.5 -59.5t12.5 -59.5t33.5 -48.5zM330 730h36
v-109h91v-19v-18h-127v146z" />
    <glyph glyph-name="coupon" unicode="&#xe633;" 
d="M1024 482v206q0 27 -18.5 45.5t-45.5 18.5h-176q7 0 11.5 -4.5t4.5 -11.5t-4.5 -11.5t-11.5 -4.5t-11.5 4.5t-4.5 11.5t4.5 11.5t11.5 4.5h-720q-27 0 -45.5 -18.5t-18.5 -45.5v-208q40 0 68 -28t28 -68t-28 -68t-68 -28v-208q0 -27 18.5 -45.5t45.5 -18.5h720
q-7 0 -11.5 4.5t-4.5 11.5t4.5 11.5t11.5 4.5t11.5 -4.5t4.5 -11.5t-4.5 -11.5t-11.5 -4.5h176q27 0 45.5 18.5t18.5 45.5v210q-40 0 -68 28t-28 68t28 68t68 28v0zM640 464v-64h-160v-64h160v-64h-160v-96h-64v96h-160v64h160v64h-160v64h64l-64 96h64l64 -96h128l64 96h64
l-64 -96h64zM784 80q-7 0 -11.5 4.5t-4.5 11.5t4.5 11.5t11.5 4.5t11.5 -4.5t4.5 -11.5t-4.5 -11.5t-11.5 -4.5zM784 144q-7 0 -11.5 4.5t-4.5 11.5t4.5 11.5t11.5 4.5t11.5 -4.5t4.5 -11.5t-4.5 -11.5t-11.5 -4.5zM784 208q-7 0 -11.5 4.5t-4.5 11.5t4.5 11.5t11.5 4.5
t11.5 -4.5t4.5 -11.5t-4.5 -11.5t-11.5 -4.5zM784 272q-7 0 -11.5 4.5t-4.5 11.5t4.5 11.5t11.5 4.5t11.5 -4.5t4.5 -11.5t-4.5 -11.5t-11.5 -4.5zM784 336q-7 0 -11.5 4.5t-4.5 11.5t4.5 11.5t11.5 4.5t11.5 -4.5t4.5 -11.5t-4.5 -11.5t-11.5 -4.5zM784 400q-7 0 -11.5 4.5
t-4.5 11.5t4.5 11.5t11.5 4.5t11.5 -4.5t4.5 -11.5t-4.5 -11.5t-11.5 -4.5zM784 464q-7 0 -11.5 4.5t-4.5 11.5t4.5 11.5t11.5 4.5t11.5 -4.5t4.5 -11.5t-4.5 -11.5t-11.5 -4.5zM784 528q-7 0 -11.5 4.5t-4.5 11.5t4.5 11.5t11.5 4.5t11.5 -4.5t4.5 -11.5t-4.5 -11.5
t-11.5 -4.5zM784 592q-7 0 -11.5 4.5t-4.5 11.5t4.5 11.5t11.5 4.5t11.5 -4.5t4.5 -11.5t-4.5 -11.5t-11.5 -4.5zM784 656q-7 0 -11.5 4.5t-4.5 11.5t4.5 11.5t11.5 4.5t11.5 -4.5t4.5 -11.5t-4.5 -11.5t-11.5 -4.5z" />
    <glyph glyph-name="shangla1" unicode="&#xe6a6;" 
d="M512 489l-288 -280l-36 35l324 315v-1v1l324 -315l-36 -35z" />
    <glyph glyph-name="yue01" unicode="&#xe671;" 
d="M614 298v0q13 1 22 10t9 22t-9 22t-22 9v0h-63v1v1l74 76q14 16 -7 37q-9 9 -21.5 10.5t-20.5 -6.5l-63 -68l-69 69q-6 6 -17.5 4.5t-20.5 -11t-10.5 -20.5t4.5 -17l70 -70q-2 -3 -2 -6h-57v0h-1q-13 0 -22 -9t-9 -22t9 -22.5t22 -9.5h1v0h62v-31h-62v0h-1q-13 0 -22 -9
t-9 -22t9 -22t22 -9h1v0h62v-39q0 -17 11.5 -28.5t27.5 -11.5t27.5 11.5t11.5 28.5v39h63q13 0 22 9t9 22t-9 22t-22 9v0h-63v31h63v0v0zM638 663l34 42v0v0l7 8q6 8 5 18v5q0 26 -23 40q-5 5 -11 6q-81 16 -144 16h-2q-64 0 -145 -16q-7 -1 -12 -6q-23 -13 -23 -40
q0 -3 1 -5q-2 -10 5 -18l6 -7v-1q1 0 1 -0.5v-0.5l37 -46q-108 -51 -180.5 -159t-72.5 -223q0 -156 95.5 -231t295.5 -75t295.5 75t95.5 231q0 118 -76 228t-189 159zM372.5 734.5l-0.5 0.5v0q0 1 -1 1q2 1 3 2q75 13 130 14h2q55 0 128 -14q2 -1 3 -2v0v-0.5v-0.5h-1
q0 -1 -1 -2l-48 -60h-166l-48 61zM512 16q-181 0 -262.5 62t-81.5 198q0 108 74 210t178 141h178h2h3q105 -38 179 -140.5t74 -210.5q0 -136 -81.5 -198t-262.5 -62z" />
    <glyph glyph-name="yijian1" unicode="&#xe643;" horiz-adv-x="1038" 
d="M511 823q123 0 227.5 -52.5t165.5 -142.5t61 -196t-61 -196.5t-165.5 -142.5t-227.5 -52q-46 0 -227 -58q15 48 8 77q-8 32 -35 47q-94 55 -147 141t-53 184q0 106 61 196t165.5 142.5t227.5 52.5zM511 879q-104 0 -198.5 -35.5t-163 -95.5t-109 -142.5t-40.5 -173.5
q0 -115 62 -213.5t167 -160.5q33 -19 -45 -156l-10 -15q282 97 337 97q104 0 198.5 35.5t163 95.5t109 142.5t40.5 174t-40.5 174t-109 142.5t-163 95.5t-198.5 35.5v0zM291 431zM238 431q0 22 15.5 37.5t37.5 15.5t38 -15.5t16 -37.5t-16 -38t-38 -16t-37.5 16t-15.5 38z
M511 431zM458 431q0 22 15.5 37.5t37.5 15.5t38 -15.5t16 -37.5t-16 -38t-38 -16t-37.5 16t-15.5 38zM731 431zM678 431q0 22 15.5 37.5t37.5 15.5t37.5 -15.5t15.5 -37.5t-15.5 -38t-37.5 -16t-37.5 16t-15.5 38z" />
    <glyph glyph-name="youhuiquan1" unicode="&#xe637;" 
d="M1024 250v-74v-87q0 -32 -22.5 -54.5t-53.5 -22.5h-825q-32 0 -54 22.5t-22 54.5v87v73q51 11 74 47q22 36 22 65q0 27 -22 62q-24 39 -74 50v73v86q0 32 22 55t54 23h825q31 0 53.5 -23t22.5 -55v-86v-74q-46 -10 -71 -51q-24 -41 -24 -60t24 -59q25 -42 71 -52v0z
M976 659h-603v-73h-57v73h-221v-133q43 -27 71 -71t28 -94t-28 -94t-71 -71v-134h221v73h57v-73h603v141q-44 28 -72 68.5t-28 89.5t28 89.5t72 68.5v140zM745 337h-75q-5 0 -9 -3q-1 0 -2 -1q-2 0 -2 -2q0 -6 1 -10v-6q0 -7 12 -5h74q11 0 11 -11v-24q0 -12 -16 -12h-23
h-18q-8 -1 -18 -1h-10q-10 0 -10 -12v-47v-8q0 -7 -10 -7h-26q-15 0 -15 14q0 1 1 20q1 21 -1 29q0 6 -1 8t-7 2h-74q-14 0 -14 15q0 5 -2 10v8q2 6 4 11t9 4h14h18h33h11h6q2 0 2 6v16q0 6 -14 6h-71h-8q-4 1 -4 7v12q0 9 -1 14q-2 7 4 12q5 5 14 5q9 -1 21 -1q9 1 11 1h14
q7 0 5 4q-1 1 -2 3.5t-3 6.5t-5 8q-2 3 -12.5 18t-15.5 21q-14 19 -34 44q-8 14 3 22q6 4 12 9t14 10q12 7 22 -13q5 -6 13 -17q14 -18 20 -27q10 -14 20 -26q8 -10 10 -14q2 -5 8.5 -6t8.5 4q1 2 10 15l18 28q15 22 20 29q5 8 11 17q5 8 10 11q4 2 13 -1q6 -2 12 -7
q8 -5 9 -7q13 -14 7 -23q-1 -2 -12 -18q-4 -5 -11.5 -16t-10.5 -15q-5 -6 -12.5 -19.5t-9.5 -16.5q-3 -5 -5.5 -8.5t-4 -6l-1.5 -2.5q-3 -6 3 -7q6 -2 12 -2h46q6 0 10 -4.5t4 -9.5v-26q0 -8 -11 -8v0zM316 509h57v-122h-57v122v0zM373 190h-57v144h57v-144v0z" />
    <glyph glyph-name="shulin" unicode="&#xe658;" 
d="M292 61q-14 0 -30 1q-126 11 -187 89q-51 66 -34 161q30 163 90 267q74 127 174 118q85 -7 146 -127q4 -8 1 -17t-11.5 -13.5t-17.5 -1.5t-13 12q-49 97 -109 101q-39 3 -75 -26.5t-62.5 -82t-45.5 -113t-31 -126.5q-14 -75 24 -124q48 -62 154 -71q63 -5 114.5 13
t77.5 53q6 8 15.5 9.5t17 -4t9 -15t-3.5 -17.5q-36 -49 -104 -71q-46 -15 -99 -15zM281.5 -97q-9.5 0 -16 6.5t-6.5 16.5v439q0 9 6.5 16t16 7t16.5 -7t7 -16v-439q0 -10 -7 -16.5t-16.5 -6.5zM270 231q-6 0 -11 3l-80 43q-9 4 -11.5 13.5t2 18t13.5 11t18 -1.5l80 -43
q8 -4 11 -13.5t-2 -17.5q-6 -13 -20 -13zM678.5 -128q-9.5 0 -16.5 6.5t-7 16.5v726q0 10 7 16.5t16.5 6.5t16 -6.5t6.5 -16.5v-726q0 -10 -6.5 -16.5t-16 -6.5zM662 215q-11 0 -17 8l-105 126q-6 7 -5 16.5t8 16t16.5 5.5t15.5 -9l105 -125q6 -8 5.5 -17.5t-8.5 -15.5
q-7 -5 -15 -5zM690 76q-19 0 -38 1q-78 7 -139.5 36t-99.5 77q-64 83 -42 205q38 212 116 346q94 162 220 152q38 -3 72 -24t59.5 -54.5t46.5 -70t36.5 -80t25 -75.5t17.5 -64q4 -17 -11 -25q-63 -38 -63 -81q0 -27 24.5 -64t63.5 -69q11 -10 8 -23q-24 -103 -128 -152
q-74 -35 -168 -35zM693 847q-51 0 -97.5 -41t-80.5 -109.5t-58.5 -146.5t-40.5 -163q-18 -101 34 -169q64 -83 206 -95q61 -5 117 7t102 45.5t62 84.5q-43 39 -68 81.5t-25 78.5q0 62 71 110q-35 144 -91 227.5t-121 89.5h-10zM692 389q-9 0 -15 5q-7 7 -8 16.5t6 16.5
l116 132q6 7 15.5 7.5t16.5 -5.5t8 -15.5t-6 -17.5l-116 -131q-6 -8 -17 -8z" />
    <glyph glyph-name="jifen-copy" unicode="&#xe60c;" 
d="M592 495q-17 16 -33 23t-40 7q-28 0 -45 -14.5t-17 -38.5q0 -21 17.5 -36.5t42 -25.5t49 -21.5t42 -33.5t17.5 -53q0 -38 -25 -62t-67 -29v-52h-33v52q-57 5 -100 40l20 27q45 -36 93 -36q33 0 51 15t18 42q0 24 -17.5 41.5t-42 28t-49 22t-42 31.5t-17.5 49
q0 34 24 57.5t62 28.5v52h33v-52q46 -4 83 -39zM512 763q103 0 190 -51t138 -138t51 -190t-51 -190t-138 -138t-190 -51t-190 51t-138 138t-51 190t51 190t138 138t190 51zM512 796q-112 0 -207 -55t-150 -150t-55 -207t55 -207t150 -150t207 -55t207 55t150 150t55 207
t-55 207t-150 150t-207 55v0zM815 532q-3 7 -10 9t-13.5 -1t-9 -10t1.5 -14q30 -62 30 -132q0 -125 -88.5 -213.5t-213.5 -88.5q-7 0 -12.5 -5t-5.5 -12.5t5.5 -12.5t12.5 -5q92 0 169.5 45t123 122.5t45.5 169.5q0 78 -35 148zM512 686q123 0 211 -86q5 -5 12 -5
q8 0 13 5.5t5 13t-5 12.5q-99 95 -236 95q-7 0 -12.5 -5t-5.5 -12.5t5.5 -12.5t12.5 -5zM395 106q-85 35 -135 111t-50 167q0 88 48 163t128 112q7 3 9.5 9.5t-0.5 13.5t-10 9.5t-14 -0.5q-89 -41 -142.5 -124.5t-53.5 -182.5q0 -102 56 -186.5t150 -124.5q3 -1 7 -1
q11 0 16 10q3 7 0 14t-9 10z" />
    <glyph glyph-name="daipingjia1" unicode="&#xe668;" 
d="M889 362q5 15 8.5 30.5t5 35t1.5 29.5t0.5 36t0.5 31l3 189q0 14 -10.5 24t-24.5 10q-45 -1 -85 -13.5t-93 -36.5q-13 60 -53 111q-25 33 -62 60.5t-69 27.5q-51 0 -125 -82q-42 -49 -60 -114q-90 45 -164 47q-14 0 -24 -10t-10 -24q0 -29 -2.5 -88.5t-3 -97t5.5 -88
t19 -89.5q35 -102 125.5 -165.5t201.5 -76.5v-201q0 -22 17 -31t34 0t17 31v199q117 5 213.5 75.5t133.5 180.5zM533 174q-115 -7 -210.5 59.5t-121.5 176.5q-4 19 -5 39.5t-0.5 54t0.5 39.5v132q13 -2 25.5 -5.5t21.5 -6.5t24 -10t20.5 -10t23.5 -12.5t23 -11.5
q18 -10 33.5 -0.5t17.5 29.5q5 54 36.5 99.5t80.5 73.5q12 7 33 -6t34 -27t24 -28q33 -44 39 -104q-2 -7 1 -15q4 -18 21.5 -24.5t31.5 1.5q8 4 36.5 16.5t40.5 17.5t34 12.5t41 10.5q0 -32 -0.5 -68t-1.5 -80t-1 -69q-2 -79 -45 -143t-111 -100t-146 -41zM259 134
q-26 9 -57.5 10.5t-61.5 -5t-55 -25t-36 -44.5q-11 -27 15 -38t44 8q5 5 7 11q-1 -3 3 -1q3 2 10 7q16 11 23 13q66 22 127 -28q54 -44 98 -121q6 -11 16.5 -15t20 -0.5t17.5 10.5t9.5 17.5t-4.5 22.5q-81 141 -176 178zM975 60q-11 27 -36 45t-55 25t-61.5 5.5t-57.5 -11.5
q-95 -37 -176 -178q-6 -11 -4.5 -22t9.5 -18t18 -10t20.5 0.5t16.5 14.5q38 67 97 121q48 43 114 31q27 -4 42 -16q1 -2 5 -7l2 2q11 -27 41 -22q25 3 28 23q1 8 -3 17z" />
    <glyph glyph-name="yihan" unicode="&#xe802;" 
d="M828 700q-63 63 -144.5 96.5t-171 33.5t-171.5 -33.5t-145 -97t-97 -145t-34 -170.5t34 -170.5t97 -145t144.5 -97t171.5 -33.5t171.5 33.5t144.5 96.5q86 86 116.5 201t0 230t-116.5 201v0v0v0zM787 110q-55 -55 -126 -84.5t-149 -29.5t-149 29.5t-126 84.5t-84.5 125.5
t-29 148.5t29.5 149t84 126t126 84t149 29t149 -29t126 -84q75 -75 101.5 -175t0 -200t-101.5 -174v0v0v0zM663 529q-22 0 -37 -15.5t-15 -37t15 -36.5t37 -15t37 15t15 36.5t-15 37t-37 15.5v0v0v0zM385 425q21 0 36.5 15t15.5 36.5t-15.5 37t-37 15.5t-37 -15.5t-15.5 -37
t15.5 -36.5t37.5 -15v0v0v0zM513 309q-54 0 -100.5 -26t-75.5 -71q-9 -14 -1.5 -28t23.5 -14h2q14 0 22 11q22 33 56 52t74 19q39 0 73.5 -19t56.5 -52q7 -11 21 -11h2q16 0 23.5 14t-1.5 28q-29 45 -75.5 71t-99.5 26v0v0v0zM513 309z" />
    <glyph glyph-name="jifen" unicode="&#xe675;" 
d="M523 241q-77 0 -80 63h-75q0 -63 43 -96q35 -26 85 -31v-1v-32q0 -7 4.5 -11.5t11.5 -4.5h32q7 0 11.5 4.5t4.5 11.5v32v2q46 7 73 32q39 34 39 89q0 40 -21 65t-77 39l-90 22q-21 6 -30 16t-9 25q0 20 17 32q18 12 48 12q66 0 75 -58h75q-4 60 -43 92q-24 20 -58 27
q1 3 1 5v32q0 7 -4.5 11.5t-11.5 4.5h-32q-7 0 -11.5 -4.5t-4.5 -11.5v-32v-1q-56 -4 -87 -32q-37 -33 -37 -86q0 -40 20 -64.5t62 -35.5l91 -24q52 -12 52 -43q0 -49 -74 -49zM797.5 192.5q-6.5 4.5 -10.5 -1.5q-48 -67 -120.5 -105t-154.5 -38q-90 0 -168 46q-7 4 -11 -3
t3 -11q82 -48 176 -48q86 0 162 39.5t126 110.5q4 6 -2.5 10.5zM176 384q0 45 13 91q2 8 -5.5 10t-10.5 -5q-13 -48 -13 -96q0 -106 58 -194q3 -3 7 -3q2 0 4 1q7 4 3 11q-56 84 -56 185zM512 736q-77 0 -147 -32.5t-120 -90.5q-5 -6 1 -11.5t11 0.5q48 56 114.5 87
t140.5 31q91 0 168.5 -45t122.5 -122.5t45 -168.5q0 -30 -6 -62q-1 -8 6 -9h2q7 0 8 6q6 33 6 65q0 95 -47 176.5t-128.5 128.5t-176.5 47zM512 832q-91 0 -174 -35.5t-143 -95.5t-95.5 -143t-35.5 -174t35.5 -174t95.5 -143t143 -95.5t174 -35.5t174 35.5t143 95.5
t95.5 143t35.5 174t-35.5 174t-95.5 143t-143 95.5t-174 35.5zM512 -16q-108 0 -200.5 53.5t-146 146t-53.5 200.5t53.5 200.5t146 146t200.5 53.5t200.5 -53.5t146 -146t53.5 -200.5t-53.5 -200.5t-146 -146t-200.5 -53.5z" />
    <glyph glyph-name="daishouhuo" unicode="&#xe815;" 
d="M816 270q75 0 128 -53t53 -128t-53 -128t-128 -53t-128 53t-53 128t53 128t128 53v0zM805 240q-14 0 -23.5 -10t-9.5 -24v-130q0 -14 9.5 -23.5t23.5 -9.5v0h4q3 -1 7 -1h89q13 0 23 9.5t10 23.5v0q0 14 -10 23.5t-23 9.5h-67v98q0 14 -9.5 24t-23.5 10v0v0v0zM434 182
l-321 227v-146l321 -228v147v0zM513 236l205 147l-426 303l-205 -148l426 -302v0zM493 -69l-421 299v271l421 -299v-271v0zM309 857l194 -4l404 -286l-194 4l-404 286v0zM990 540q0 7 -5 13q-2 6 -6 9l-459 325q-5 4 -11 4l-260 5q-14 0 -18.5 -13t7.5 -21l119 -84l-57 -42
q-3 0 -6 -2l-250 -181q-8 -5 -8 -15v0l-1 -1v-317l8 -15l458 -325h1q2 -2 3 -2q4 -2 8 -2q6 0 11 4l113 79q-11 15 -20 33l-85 -61v271l421 299v-239q10 -8 19 -17q10 -10 19 -21v313q0 1 -0.5 1.5t-0.5 1.5v0z" />
    <glyph glyph-name="xihuan-copy" unicode="&#xe60d;" 
d="M512 896q-139 0 -257 -68.5t-186.5 -186.5t-68.5 -257t68.5 -257t186.5 -186.5t257 -68.5t257 68.5t186.5 186.5t68.5 257t-68.5 257t-186.5 186.5t-257 68.5zM783 373q-9 -28 -22 -54q-14 -25 -30 -45q-16 -21 -33 -38q-26 -27 -52 -48q-28 -23 -52 -39q-26 -17 -46 -25
q-20 -10 -31 -10q-13 0 -32 9q-21 10 -43 26q-24 16 -49 38q-25 21 -51 46q-16 15 -35 37q-19 21 -36 45q-17 25 -28.5 54t-13.5 62q-1 33 7 61t25 51q16 23 40 38t54 22q15 3 30 0.5t30 -7.5q15 -6 27 -14q13 -7 26 -16q27 -21 52 -50q21 26 44 46q20 17 45.5 31t53.5 12
q39 -3 65 -18.5t42 -38.5q15 -24 20.5 -54t3.5 -61t-11 -60v0z" />
    <glyph glyph-name="xianshiqianggou" unicode="&#xe636;" 
d="M226 568q66 70 158 98q-2 43 -33 72.5t-74 29.5q-44 0 -75 -31.5t-31 -75.5q0 -29 15 -54t40 -39zM811 661q0 44 -31.5 75.5t-75.5 31.5q-43 0 -74 -29.5t-33 -72.5q93 -28 158 -98q25 14 40.5 39t15.5 54zM640 320q0 -9 -6 -15t-15 -6h-128q-9 0 -15.5 6t-6.5 15v171
q0 9 6.5 15t15.5 6t15 -6t6 -15v-150h107q9 0 15 -6t6 -15zM491 640q-87 0 -161 -43t-116.5 -116.5t-42.5 -160.5t42.5 -160.5t116.5 -116.5t161 -43t160.5 43t116.5 116.5t43 160.5t-43 160.5t-116.5 116.5t-160.5 43zM491 43q-115 0 -196.5 81t-81.5 196t81.5 196
t196.5 81t196 -81t81 -196t-81 -196t-196 -81z" />
    <glyph glyph-name="fujin1" unicode="&#xe6da;" 
d="M512 847q-94 0 -180 -36.5t-148 -98.5t-98.5 -148t-36.5 -180t36.5 -180t98.5 -148t148 -98.5t180 -36.5t180 36.5t148 98.5t98.5 148t36.5 180t-36.5 180t-98.5 148t-148 98.5t-180 36.5zM651 245l-358 -80l80 358l358 80zM512 384zM439 384q0 30 21.5 51.5t51.5 21.5
t51.5 -21.5t21.5 -51.5t-21.5 -51.5t-51.5 -21.5t-51.5 21.5t-21.5 51.5z" />
    <glyph glyph-name="xiugai2" unicode="&#xe650;" 
d="M893 688v-476q0 -59 -42 -101t-101 -42h-476q-59 0 -101 42t-42 101v476q0 59 42 101t101 42h476q59 0 101 -42t42 -101zM401 196l270 270l-143 143l-270 -270v-143h143zM331 345l76 -76l-26 -26h-28v48h-47v28zM537 538q7 -6 -2 -15l-144 -144q-9 -9 -15 -2q-7 7 2 15
l144 145q8 8 15 1zM703 497l45 46q14 14 14 34t-14 34l-75 75q-14 14 -34 14t-34 -14l-45 -46z" />
    <glyph glyph-name="zhifu1" unicode="&#xe62c;" 
d="M604 634l-78 -173h-16l-78 173h-48l79 -173h-79v-47h110v-31v-47h-110v-47h110v-78h48v78h110v47h-110v78h47h63v47h-79l79 173h-48zM877 782q-5 3 -13 7t-35.5 12t-64.5 14.5t-104 11t-148.5 4.5t-148 -4.5t-103.5 -11t-65 -14.5t-36 -12t-12 -7q-18 -13 -18 -35v-364
q0 -46 20 -94.5t49 -88.5t69.5 -81t75 -69t71.5 -54.5t52.5 -36.5t24.5 -15t20.5 -5t20.5 5t25 15t53 36.5t71.5 54.5t74.5 69t69.5 81t49 88.5t19.5 94.5v364q0 22 -17 35zM860 383q0 -42 -19.5 -87t-48 -82.5t-68 -76.5t-72 -65.5t-69 -52t-48.5 -33.5t-21 -13h-2h-3
q-8 5 -20.5 13t-49 33.5t-68.5 52t-72 65.5t-68.5 76.5t-48 82.5t-19.5 87v364q0 5 4 7q1 2 8.5 5.5t33.5 10.5t61 12.5t99.5 10t142.5 4.5t142 -4.5t99 -10t61.5 -13t33 -10.5t8.5 -4q4 -3 4 -8v-364z" />
    <glyph glyph-name="gender" unicode="&#xe6cc;" 
d="M336 334q79 11 132.5 71.5t53.5 142.5q0 89 -63 152.5t-152.5 63.5t-153 -63.5t-63.5 -152.5q0 -82 53.5 -142.5t132.5 -71.5v-104h-140v-60h140v-140h60v140h140v60h-140v104zM150 548q0 64 45.5 110t110.5 46t110.5 -46t45.5 -110.5t-45.5 -110.5t-110.5 -46t-110.5 46
t-45.5 111v0zM502 218q0 -89 63 -152.5t152.5 -63.5t153 63.5t63.5 152.5q0 82 -53.5 142.5t-132.5 71.5l-1 219l58 -57l42 43l-129 129l-130 -130l43 -42l57 57v-219q-80 -11 -133 -71.5t-53 -142.5v0zM874 218q0 -64 -45.5 -110t-110.5 -46t-110.5 45.5t-45.5 110.5
t45.5 110.5t110 46t110.5 -45.5t46 -111v0z" />
    <glyph glyph-name="remaichanpin" unicode="&#xe6ef;" 
d="M480 368q-1 18 -18 19q-18 -2 -19 -19h37zM455 368q0 10 7 10t7 -10h-14zM438 380q-1 6 -6 7q-6 -1 -6 -7v-6h-11v6q0 6 -6 7q-5 -1 -5 -7v-24q0 -6 5 -6q6 0 6 6v8h11v-8zM506 377h6q5 0 5 4.5t-5 4.5h-24q-5 0 -5 -4.5t4 -4.5h7h12zM480 368q-1 18 -18 19
q-18 -2 -19 -19h37zM438 380q-1 6 -6 7q-6 -1 -6 -7v-6h-11v6q0 6 -6 7q-5 -1 -5 -7v-24q0 -6 5 -6q6 0 6 6v8h11v-8zM480 368q-1 18 -18 19q-18 -2 -19 -19h37zM438 380q-1 6 -6 7q-6 -1 -6 -7v-6h-11v6q0 6 -6 7q-5 -1 -5 -7v-24q0 -6 5 -6q6 0 6 6v8h11v-8zM506 377h6
q5 0 5 4.5t-5 4.5h-24q-5 0 -5 -5zM486 323q-35 -1 -36 -52q1 -49 36 -50q37 1 38 50q-1 51 -38 52zM704 896q-18 -47 -39 -84t-40 -60t-39.5 -39t-37 -22.5t-34 -9.5t-28 -2.5t-21.5 2t-13 1.5q13 29 87 96q4 4 3 4l-10.5 0.5t-28.5 -0.5t-42.5 -4.5t-55.5 -14t-64 -26
t-72 -43.5t-76 -64q-42 -41 -71.5 -89.5t-43 -96t-19 -85.5t-5.5 -75q0 -108 53 -200t145 -145t200 -53q163 0 272 105t132 276q12 84 9 158.5t-13 136.5t-27.5 114.5t-35.5 91t-37 67t-31 43t-17 18.5zM360 207q-1 -29 -30 -30q-29 1 -30 30v43h-58v-43q-1 -29 -30 -30
q-28 1 -29 30v129q1 31 29 32q29 -1 30 -32v-35h58v35q1 31 30 32q29 -1 30 -32v-129zM486 176q-93 4 -96 95q4 91 96 98q93 -6 97 -98q-3 -92 -97 -95zM752 317h-35v-110q-1 -29 -31 -30q-28 1 -29 30v110h-36q-25 0 -25 24q0 23 27 23h127q27 0 27 -23q0 -24 -25 -24z" />
    <glyph glyph-name="yongjin1" unicode="&#xe6c9;" 
d="M875 745l-1 1v0q-71 71 -164.5 110.5t-197.5 39.5t-197 -39.5t-164 -110.5h-1v0q-71 -71 -110.5 -164.5t-39.5 -197.5t39.5 -197t109.5 -164l1 -1v0q71 -71 164.5 -110.5t197.5 -39.5t197.5 39.5t163.5 110.5h1v0q71 71 110.5 164.5t39.5 197.5t-39.5 197t-109.5 164z
M823 73q-61 -61 -141 -94.5t-169.5 -33.5t-170 33.5t-141.5 94.5t-95 141.5t-34 169.5t34 169.5t95 141.5t141.5 94.5t170 33.5t169.5 -33.5t141 -94.5t95 -141.5t34 -169.5t-34 -169.5t-95 -141.5zM776 647.5q-52 51.5 -120 80.5t-144 29t-144 -29t-120 -80.5t-80.5 -119.5
t-28.5 -144t28.5 -144t80.5 -119.5t120 -80.5t144 -29t144 29t120 80.5t80.5 119.5t28.5 144t-28.5 144t-80.5 119.5zM666 564q-3 -3 -3 -5l-98 -151h57q27 0 27 -22q-3 -16 -27 -19h-84v-43h84q27 0 27 -22q-3 -16 -27 -19h-84v-96q0 -24 -26 -24t-26 24v96h-84
q-24 3 -27 19q0 22 27 22h84v43h-84q-24 3 -27 19q0 22 27 22h57l-98 151q0 2 -3 5q-4 9 -7 19q3 19 22 22q19 0 29 -17l110 -166l110 166q10 17 29 17q19 -3 22 -22q0 -5 -7 -19z" />
    <glyph glyph-name="shouye-copy-copy" unicode="&#xe612;" 
d="M922 377l-413 386l-413 -385q-6 -5 -6.5 -13.5t5.5 -14.5t14 -6.5t14 5.5l386 359l385 -360q6 -5 14 -5q9 0 15 6q5 6 5 14t-6 14v0zM922 377zM796 369q-9 0 -14.5 -6t-5.5 -14v-306h-160v213h-214v-213h-160v306q0 8 -6 14t-14 6t-14 -6t-6 -14v-346h240v213h134v-213
h240v346q0 8 -6 14t-14 6v0zM796 369zM656 656h120v-107q0 -8 5.5 -14t14 -6t14.5 6t6 14v147h-160q-9 0 -14.5 -6t-5.5 -14.5t5.5 -14t14.5 -5.5v0zM656 656z" />
    <glyph glyph-name="haoyou" unicode="&#xe796;" 
d="M655 172q-18 5 -82 31t-71 31q-11 5 -25 17.5t-16 19.5q-3 5 -4 17t3 29t14 26q14 14 24 21q1 0 3.5 2.5l4 4t4 5.5t4.5 9.5t5 14.5t7 22q1 0 3 1.5t4 4.5t3 4q2 4 9 31t8 30q1 8 -1.5 14t-5.5 8l-3 2v62q-3 48 -20.5 90t-48.5 50q-4 1 -11.5 2t-13.5 1h-5
q-16 19 -30.5 28t-38.5 9q-75 0 -112 -37q-17 -16 -29.5 -34.5t-19.5 -36.5t-11 -34.5t-5 -32.5t-1.5 -26.5t0.5 -21.5t1 -12l-2.5 -2t-3.5 -3.5t-2.5 -4.5t-1 -7.5t2.5 -9.5q10 -52 14 -58q2 -2 5 -7t5 -7q11 -36 24 -61q3 -4 11.5 -11t12.5 -10q11 -11 12.5 -38.5
t-2.5 -33.5q-2 -7 -13.5 -18.5t-23.5 -18.5q-9 -7 -72 -29t-89 -29q-15 -5 -20 -11.5t-7 -22.5q-1 -5 -5 -25.5t-6.5 -36.5t-2.5 -27q0 -16 7 -23.5t24 -7.5h611q31 0 31 31q0 14 -14 82q-19 33 -38 37zM969 128q-2 14 -17.5 29.5t-40.5 25.5q-13 5 -45 13.5t-56.5 15.5
t-27.5 12q-3 2 -5.5 10.5t-4 23.5t2.5 34h99q3 5 -10.5 20.5t-10.5 20.5q28 56 21 123q-5 58 -31 102q-14 27 -36 47t-44 29t-37.5 12.5t-25.5 3.5q-65 4 -109 -41q5 -10 8.5 -59t1.5 -84q-3 -26 -17.5 -57t-27 -49t-17.5 -20q2 -4 3.5 -5.5t3.5 -5.5q5 -4 -2 -13.5
t-14 -17.5t-4 -10h99q5 -27 0 -44l24.5 -9.5t41 -16.5t22.5 -11q24 -18 36 -74.5t12 -86.5q0 -23 -13 -27h208q27 0 27 30q0 11 -14 79z" />
    <glyph glyph-name="tongzhi" unicode="&#xe614;" 
d="M208 235q34 -38 86 -72q38 -30 51 -39q4 -8 0 -21q-17 -56 -26 -68q-8 -26 9 -34q17 -5 38 4q11 5 28.5 14.5t58 36.5t62.5 51q7 0 17.5 1t42 5.5t59.5 11.5t62 21.5t58 33.5q5 3 13.5 9.5t31 27.5t40.5 44t34.5 59t21.5 73q1 6 2 17t-1.5 42t-9.5 60.5t-26.5 66.5
t-49.5 66l-11.5 11.5t-35 27.5t-59 36t-84 30.5t-109.5 18.5q-7 0 -19 -1t-47 -6t-66.5 -14.5t-70 -29.5t-66.5 -48q-4 -2 -11 -7.5t-25.5 -26t-33 -44.5t-28 -64t-17.5 -84v0q-3 -92 46 -167q15 -23 35 -42zM345 530h345q10 0 16 -6t6 -15.5t-6 -15.5t-16 -6h-345
q-10 0 -15.5 6t-5.5 15.5t5.5 15.5t15.5 6v0zM387 402h214q9 0 15 -6t6 -15.5t-6 -15.5t-15 -6h-214q-9 0 -15 6t-6 15t7 15.5t14 6.5v0z" />
    <glyph glyph-name="fangwuchushou" unicode="&#xe657;" 
d="M847 729q0 12 -7.5 20.5t-18.5 8.5h-66q-11 0 -18.5 -8.5t-7.5 -20.5v-9l119 -90v99h-1zM950 503l-103 78l-118 90l-111 84q-13 10 -29.5 10t-30.5 -10l-332 -252l-0.5 -0.5l-0.5 -0.5q-26 -21 -21 -55h37h52h19h25h18q24 0 41.5 -19t17.5 -46v-138q0 -21 -11 -37.5
t-28 -23.5h129v149q0 27 24.5 46t59.5 19t59.5 -19t24.5 -46v-149h146q25 0 43 19.5t18 47.5v165v1v1l11 -8q13 -10 30 -10q27 0 43 24q6 10 8 21q7 37 -21 59zM507 595v0q0 6 4 10.5t10 4.5h6h25h19v-64h-64v30v19zM521 467q-6 0 -10 4.5t-4 10.5v43h64v-59h-50v1zM654 482
q0 -6 -4 -10.5t-10 -4.5h-50v58h64v-43zM654 546h-64v64h34h16q6 0 10 -4.5t4 -10.5v-8v-41zM370 21v5q0 10 -9 10h-11l-88 96v-1v53v17v17h41h55q12 0 20 9t8 22v139q0 12 -8 21t-20 9h-62h-3h-68h-145q-12 0 -20 -9t-8 -21v-139q0 -13 8 -22t20 -9h109v-17v-17v-54
l-86 -94h-20q-8 0 -8 -10v-5q0 -9 8 -9h278q9 0 9 9zM100 258h-22q-9 0 -9 9.5t9 9.5h22q8 0 8 -9.5t-8 -9.5zM170 258h-39q-9 0 -9 9.5t9 9.5h39q9 0 9 -9.5t-9 -9.5zM202 277h39q9 0 9 -9.5t-9 -9.5h-39q-9 0 -9 9.5t9 9.5zM365 277q9 0 9 -9.5t-9 -9.5h-22q-9 0 -9 9.5
t9 9.5h22zM320 267.5q0 -9.5 -9 -9.5h-18h-21q-9 0 -9 9.5t9 9.5h21h18q9 0 9 -9.5zM189 69v-33h-30zM262 36v35l32 -35h-32zM890 122q-6 6 -13 0l-25 -22q-7 -6 -7 -16v-18h-28v18q0 10 -7 16l-25 22q-7 6 -13 0l-25 -22q-7 -6 -7 -16v-18h-28v18q0 10 -7 16l-25 22
q-3 3 -8 3q-3 -1 -6 -3l-25 -22q-6 -6 -6 -16v-18h-28v18q0 10 -7 16l-25 22q-7 6 -14 0l-25 -22q-6 -6 -6 -16v-18h-26h-3v18q0 10 -6 16l-25 22q-7 6 -14 0l-25 -22q-7 -6 -7 -16v-72q0 -9 9 -9h60q8 0 8 9v23h29v-23q0 -9 8 -9h60q9 0 9 9v23h28v-23q0 -9 9 -9h59
q9 0 9 9v23h28v-23q0 -9 9 -9h59q9 0 9 9v23h28v-23q0 -9 9 -9h59q9 0 9 9v72q0 10 -7 16z" />
    <glyph glyph-name="fangwu1" unicode="&#xe746;" 
d="M955 461l-117 108v2.5v4v3.5v149q0 26 -17.5 44t-42 18t-42 -18t-17.5 -44v-51l-154 141q-23 24 -55.5 24t-55.5 -24l-385 -347q-23 -24 -23 -55.5t23 -55.5l106 -44v-317q0 -33 22 -56.5t54 -23.5h516q31 0 53.5 23.5t22.5 56.5v306l112 45q23 24 23 55.5t-23 55.5v0z
M651 443q20 0 34 -14.5t14 -35t-14 -35t-34 -14.5t-34 14.5t-14 35t14 35t34 14.5v0zM373 443q20 0 34 -14.5t14 -35t-14 -35t-34 -14.5t-34 14.5t-14 35t14 35t34 14.5v0zM744 166q-44 -59 -105 -95t-127 -36h-1v0q-65 0 -126 35.5t-105 93.5q-8 11 -6.5 25t12.5 22
q9 7 20 7q16 1 26 -13q33 -42 80 -66t99 -24q54 0 101.5 24t79.5 68q10 13 27 13q10 0 19 -7q11 -8 12.5 -22t-6.5 -25v0zM744 166z" />
    <glyph glyph-name="shoujihao" unicode="&#xe684;" 
d="M510 61q-24 0 -41.5 15t-17.5 36.5t17.5 36.5t42 15t42 -15t17.5 -36.5t-17.5 -36.5t-42.5 -15v0v0zM510 135q-10 0 -18 -6.5t-8 -16t8 -16t18.5 -6.5t18 6.5t7.5 16t-7.5 16t-18.5 6.5v0v0zM319 185v444h383v-444h-383v0v0zM668 600h-315v-386h315v386v0v0zM701 0h-381
q-36 0 -61 22t-25 53v618q0 30 25 52t61 22h381q36 0 61 -22t25 -52v-618q0 -31 -25 -53t-61 -22v0v0zM753 693q0 18 -15 31.5t-37 13.5h-381q-22 0 -37.5 -13.5t-15.5 -31.5v-618q0 -19 15.5 -32.5t37.5 -13.5h381q22 0 37 13.5t15 32.5v618v0v0zM550 669h-79
q-5 0 -8.5 3.5t-3.5 9t3.5 9.5t8.5 4h79q5 0 8 -4t3 -9.5t-3 -9t-8 -3.5v0v0z" />
    <glyph glyph-name="tongzhi1" unicode="&#xe674;" 
d="M511 804q-114 0 -210.5 -48t-152.5 -131t-56 -180q0 -75 36 -144t103 -121l103 -79q-6 -31 -31 -94q-8 -19 7 -33q8 -8 20 -8q7 0 13 2q111 50 175 118q112 2 207 50t150 130.5t55 178.5q0 97 -56 180t-152.5 131t-210.5 48v0zM509 137h-3q-6 -1 -13.5 -6t-12.5 -9l-4 -5
q-55 -55 -101 -81q20 67 8 85q-2 3 -4 5v0h-2q0 1 -1 1q-83 44 -146 105q-43 45 -66 102t-23 113q0 83 49.5 154t135 112.5t185.5 41.5t185.5 -41.5t135 -112.5t49.5 -154.5t-50 -155t-135.5 -113t-186.5 -41.5v0zM689 532h-356q-13 0 -22 -9.5t-9 -22.5t9 -22t22 -9h356
q14 0 23 9t9 22t-9 22.5t-23 9.5v0zM689 532zM648 385h-273q-13 0 -22 -9t-9 -22t9 -22.5t22 -9.5h273q13 0 22 9.5t9 22.5t-9 22t-22 9v0zM648 385z" />
    <glyph glyph-name="youxiang-copy" unicode="&#xe613;" 
d="M840 651h-656q-28 0 -47 -19t-19 -47v-402q0 -28 19 -47t47 -19h656q28 0 47 19t19 47v402q0 28 -19 47t-47 19v0zM824 604l-261 -232q-35 -31 -51 -31t-51 31l-262 232h625zM167 197v364l204 -179zM201 164l205 182l34 -29q30 -26 72 -26t72 26l34 29l205 -182h-622z
M857 197l-204 185l204 179v-364zM857 197z" />
    <glyph glyph-name="youxiang" unicode="&#xe667;" 
d="M682 384l209 -171v342zM131 555v-342l209 171zM891 638h-759l380 -317zM627 339v0l-116 -96l-102 85v0l-22 18l-256 -215h760l-256 215z" />
    <glyph glyph-name="shoujihao1" unicode="&#xe615;" 
d="M661 796h-300q-47 0 -80 -32.5t-33 -79.5v-600q0 -47 33 -79.5t80 -32.5h300q46 0 79 32.5t33 79.5v600q0 46 -33 79t-79 33zM586 47h-150v37h150v-37v0zM707 159h-393v525h393v-525v0z" />
    <glyph glyph-name="wode1" unicode="&#xe65a;" 
d="M165 -52q-5 0 -9 4t-4 10t4 10t9 4h85v0q5 0 9 -4t4 -10t-4 -10t-9 -4v0h-85zM322 -52q-6 0 -10 4t-4 10v0q0 6 4 10t10 4h468q5 0 9 -4t4 -10v0q0 -6 -4 -10t-9 -4v0h-468zM857 -52q-5 0 -9 4t-4 10v0q0 6 4 10t9 4h71q-5 131 -84 234q-34 47 -86.5 84.5t-114.5 56.5
q-9 3 -9 13q0 2 1 4q3 10 12 10q3 0 5 -1q135 -43 219 -158q84 -113 84 -256v-1v0v0q0 -6 -4 -10t-9 -4v0h-85v0zM388 377q2 1 4 1q10 0 13 -10v-4q0 -10 -9 -13q-127 -40 -206 -148q-79 -106 -79 -240v-1v0q0 -6 -4 -10t-9.5 -4t-9.5 4t-4 10v0v1q0 143 85 257
q48 66 117.5 110t151.5 60zM520 820v0q93 0 158 -66q66 -66 66 -159v0q0 -93 -66 -159v0v0v0q-65 -66 -158 -66v0h-1q-93 0 -158.5 66t-65.5 159v0v0q0 93 66 159v0q66 66 158 66h1v0zM659 734.5q-58 57.5 -139.5 57.5t-139.5 -57.5t-58 -139.5v0q0 -82 58 -139.5t139 -57.5
h1v0q82 0 139 57v0q58 58 58 140v0v0q0 82 -58 139.5zM520 820q75 0 136 -46v-1q71 -55 85 -142l-4 20v0q0 -5 -4 -9t-10 -4v0v0h-173q-49 0 -84 35v0q-35 35 -35 84v35q0 10 9 13q33 13 70 14h-9q7 1 19 1v0zM639 752q-52 40 -119 40v0q-19 0 -36 -3q-13 -2 -26 -7v-25
q0 -38 27 -65v0q27 -27 65 -27h154q-26 68 -88 102zM304 656q19 68 73 112q7 11 36 25.5t62 21.5l-31 -9v0q6 0 10 -4t4 -10v0v-35q0 -49 -35 -84v0q-35 -35 -85 -35h-22v0q-5 0 -9 4t-4 9q0 3 1 5v0zM374 728q-39 -43 -49 -99l13 36q38 0 65 27h1q27 27 27 65v14
q-53 -27 -83 -78zM468 251l42 42q4 4 9.5 4t9.5 -4l43 -42q3 -4 3 -10t-3 -10l-43 -42q-4 -4 -9.5 -4t-9.5 4l-42 42q-4 4 -4 10t4 10zM520 264l-23 -23l23 -23l23 23zM579 24q5 -13 -8 -17q-2 -1 -5 -1q-9 0 -13 9l-33 93l-34 -93q-3 -9 -13 -9q-2 0 -5 1q-8 3 -8 13v4
l47 129q2 6 8 8q2 1 5 1q9 0 12 -9zM574 466q3 1 5 1q9 0 13 -8q1 -3 1 -5q0 -9 -8 -13q-16 -6 -32 -10q-16 -3 -34 -3q-16 0 -32 3q-30 6 -55 22q14 -4 14 1t4 9t10 4q3 0 5 -1q13 -5 26.5 -8t28 -3t28 3t26.5 8zM757 55q-1 3 -1 6q0 5 4 9t10 4q9 0 12 -8q18 -41 21 -89
l-1 9q1 -9 1 -24q0 -6 -4 -10t-9.5 -4t-9.5 4t-4 10q0 25 -5 48q-8 42 -30 77zM263 -38q0 -6 -4 -10t-9.5 -4t-9.5 4t-4 10q0 26 5 53q6 26 16 51q4 8 13 8q2 0 5 -1q8 -3 8 -12q0 -3 -1 -6q-16 -37 -18 -79q-1 -5 0 0q-1 -7 -1 -13v-1v0zM385 352q-7 4 -7 12q0 4 2 7
q4 7 12 7q3 0 7 -2q45 -26 98 -30l-40 7q30 -8 62.5 -8t62.5 8h1q52 14 93 47l-30 -22h1v0q6 0 10 -4t4 -10q0 -8 -7 -12q-51 -28 -110 -33l45 8q-34 -9 -69.5 -9t-69.5 9q-58 15 -104 52z" />
    <glyph glyph-name="huiyuanqia1" unicode="&#xe639;" 
d="M714 380q-15 -1 -20 0v-87q5 0 20 -2q67 -7 66 46q0 45 -66 43zM1020 725q0 26 -18.5 45t-44.5 19h-890q-26 0 -44.5 -19t-18.5 -45v-89h1016v89zM4 585v-546q0 -26 18.5 -44.5t44.5 -18.5h890q26 0 44.5 18.5t18.5 44.5v546h-1016zM362 121h-73l-115 312h73l81 -247h2
l81 247h65zM574 121h-67v312h67v-312zM743 240h-49v-119h-66v312h96q127 1 127 -96q-4 -91 -108 -97z" />
    <glyph glyph-name="remai" unicode="&#xe627;" 
d="M354 492q-2 -31 -9 -61l49 -31v92h-40zM760 711h-497q-108 0 -184.5 -77t-76.5 -185v-126q0 -109 76.5 -185.5t184.5 -76.5h497q108 0 184.5 76.5t76.5 185.5v126q0 108 -76.5 185t-184.5 77zM531 485h156v30h-132v42h132v33h54v-33h135v-42h-135v-30h161v-39
q-10 -29 -28 -67q-24 7 -54 12q14 27 25 52h-314v42zM698 415l-14 -33q-62 18 -107 28l13 31q52 -11 108 -26zM154 192l-47 25q29 49 45 87l49 -21q-20 -43 -47 -91zM248 203q-13 43 -26 79l50 14q15 -39 27 -78zM346 206q-10 34 -29 80l49 16q19 -44 32 -78zM451 196
q-18 46 -41 92l49 21q21 -38 43 -91zM490 332q-13 -20 -36 -20q-27 0 -43.5 16.5t-16.5 69.5l-32 -45l-35 27q-22 -42 -59 -74q-19 22 -38 42q34 26 53 63q-18 13 -37 25q1 -10 2 -21l-40 -7v-51q0 -22 -8.5 -33.5t-23.5 -13.5t-54 -4q-5 30 -12 50q11 -1 30 -1q16 0 16 14
v29l-42 -9l-7 51l49 7v46h-46v48h46v50h52v-50h40v-48h-40v-37l39 6q-1 -12 -1 -25l29 39l24 -15q2 15 3 31h-40v48h41v50h52v-50h91q-2 -55 -2 -98q0 -55 1.5 -63.5t8.5 -8.5t9 8.5t4 57.5q19 -10 39 -17q-3 -67 -16 -87zM886 191q-83 35 -160 67q-57 -47 -174 -65
q-1 3 -29 51q123 17 164 50h-163v42h125q-50 15 -101 28l12 32q56 -12 109 -27l-14 -33h59q11 36 12 102h56q-3 -63 -12 -102h136v-42h-151q65 -25 155 -60z" />
    <glyph glyph-name="xianshi" unicode="&#xe62d;" 
d="M588 511h52v-79h-52v79zM588 380h52v-79h-52v79zM320 448h108v-33h-108v33zM320 526h108v-33h-108v33zM760 711h-497q-108 0 -184.5 -77t-76.5 -185v-126q0 -109 76.5 -185.5t184.5 -76.5h497q108 0 184.5 76.5t76.5 185.5v126q0 108 -76.5 185t-184.5 77zM183 262
q-3 34 -10 62q7 -1 13 -1q23 0 23 18q0 41 -35 81q16 53 30 106h-33v-333h-50v379h135v-38q-15 -49 -34 -108q39 -42 39 -102q0 -64 -78 -64zM475 200q-61 27 -91 69q-1 -28 -1 -44q-80 -19 -105 -31l-22 43q13 13 13 42v295h210v-207h-10l33 -42l-61 -37q23 -20 63 -33
q-15 -24 -29 -55zM692 221h-52v27h-52v-30h-53v346h157v-343zM913 468h-34v-198q0 -33 -15 -50.5t-41.5 -18.5t-78.5 -1q-6 37 -13 59q56 -2 62 -2q29 0 29 31v180h-118v54h118v67h57v-67h34v-54zM698 419l41 28q27 -34 72 -97l-48 -32q-37 61 -65 101zM320 367v-103
q29 6 57 14q-25 36 -38 89h-19zM389 367q10 -24 22 -44q29 21 54 44h-76z" />
    <glyph glyph-name="shouye-copy" unicode="&#xe65c;" 
d="M371 256v0v1q-52 40 -75 84t-23 101q0 13 -9 22t-22 9t-22 -9t-9 -22q0 -123 94 -211q-73 -57 -115.5 -118.5t-62.5 -137.5q-3 -12 3.5 -23.5t18.5 -14.5q4 -1 8 -1q11 0 19.5 6.5t10.5 16.5q19 73 63 131t123 114q10 8 12.5 20.5t-5.5 23.5q-3 5 -9 8zM898 -25
q-20 76 -62 137t-113 117q96 88 96 213q0 13 -9 22t-22 9t-22 -9t-9 -22q0 -57 -24 -102t-75 -84q-7 -4 -11 -10q-8 -10 -6 -23t13 -20q78 -56 121 -113t63 -131q2 -10 10.5 -16.5t19.5 -6.5q4 0 8 1q12 3 18.5 14.5t3.5 23.5v0zM237.5 507q12.5 2 20 13t5.5 23
q-1 4 -1.5 10.5t0 25t4 36.5t13 40.5t24.5 40.5q62 73 209 73t209 -73q16 -18 25.5 -40.5t13 -40.5t4 -36.5t0 -25.5t-1.5 -10q-2 -12 5.5 -23t20.5 -13h5q11 0 20 7t11 19q1 5 2 14.5t0 33.5t-5.5 47.5t-17.5 53t-33 54.5q-81 96 -258 96t-257 -96q-21 -25 -34 -55t-17 -53
t-4.5 -47t0 -33.5t1.5 -14.5q3 -13 13.5 -20.5t23 -5.5zM401 529q-13 0 -22 -9t-9 -22v-33q0 -13 9 -22.5t22 -9.5t22.5 9.5t9.5 22.5v33q0 13 -9.5 22t-22.5 9zM623.5 529q-12.5 0 -22 -9t-9.5 -22v-33q0 -13 9.5 -22.5t22 -9.5t22 9.5t9.5 22.5v33q0 13 -9.5 22t-22 9z
M589.5 397q-10.5 7 -23 4.5t-20.5 -13.5q-13 -20 -34 -20q-20 0 -33 20q-7 11 -19.5 13.5t-23.5 -4t-14 -19t4 -23.5q11 -18 34 -33.5t52.5 -15.5t52 15.5t34.5 32.5q7 11 4 23.5t-13.5 19.5z" />
    <glyph glyph-name="shoujihao2" unicode="&#xe62e;" 
d="M512 -108q-100 0 -191 39t-157 105t-105 157t-39 191t39 191t105 157t157 105t191 39t191 -39t157 -105t105 -157t39 -191t-39 -191t-105 -157t-157 -105t-191 -39zM512 804q-114 0 -210.5 -56.5t-153 -153t-56.5 -210.5t56.5 -210.5t153 -153t210.5 -56.5t210.5 56.5
t153 153t56.5 210.5t-56.5 210.5t-153 153t-210.5 56.5zM651 117v0l-3 1q-48 2 -109.5 44.5t-121.5 116.5l-30 36q-61 73 -91 140.5t-22 114.5q4 31 41 56t68 25q21 0 27 -15q17 -30 32 -69.5t15 -56.5v-2v-1q-5 -12 -24 -23q-11 -6 -15.5 -11t-4.5 -14q-1 -16 56 -87
l23 -28q58 -68 74 -70q14 -2 28 14q16 16 29 18l1 1l2 -1q17 -3 53.5 -26t63.5 -46q14 -9 6 -34q-8 -27 -38.5 -55t-59.5 -28z" />
    <glyph glyph-name="yijian2" unicode="&#xe63a;" horiz-adv-x="1027" 
d="M188 74l-45 -77v0q-9 -11 -9 -25q0 -15 11.5 -26.5t27.5 -11.5q3 0 9 0.5t10.5 1l4.5 0.5h322v0q91 1 173.5 36.5t142 95.5t95 143t35.5 174t-36 174.5t-96 143.5t-143 95.5t-174 35.5h-4q-92 0 -175 -35.5t-143 -95.5t-95.5 -143.5t-35.5 -174.5q0 -89 33 -169t92 -142z
M490 227h-203v90h203v-90zM287 558h450v-90h-450v90z" />
    <glyph glyph-name="touxiangshangchuan" unicode="&#xe616;" horiz-adv-x="1365" 
d="M457 637q0 6 -4.5 10.5t-10.5 4.5h-47q-6 0 -11 -4.5t-5 -10.5v-16h78v16zM1032 590h-140q-15 0 -29.5 14.5t-24.5 32t-24.5 32t-30.5 14.5h-202q-10 0 -21 -14.5t-19.5 -32t-22.5 -32t-30 -14.5h-140q-19 0 -32.5 -13.5t-13.5 -32.5v-404q0 -20 13.5 -33.5t32.5 -13.5
h684q19 0 33 13.5t14 33.5v404q0 19 -14 32.5t-33 13.5zM690 171q-77 0 -131.5 54.5t-54.5 131.5t54.5 132t131.5 55t132 -55t55 -132t-55 -131.5t-132 -54.5zM915.5 497q-9.5 0 -16.5 7t-7 16.5t7 16.5t16.5 7t16.5 -7t7 -16.5t-7 -16.5t-16.5 -7zM690 497q-58 0 -99 -41
t-41 -99t41 -99t99 -41t99 41t41 99t-41 99t-99 41z" />
    <glyph glyph-name="remaichanpin1" unicode="&#xe670;" 
d="M358 782q1 1 0 6t1.5 12.5t6.5 15t14.5 12.5t24.5 4q6 -1 15 -4t36 -13t52.5 -23t57.5 -36t57 -49.5t45.5 -65t27.5 -81.5q1 1 1.5 3.5t3.5 9t6.5 11.5t10 11t13.5 8.5t17 1.5t21 -6q4 -3 9.5 -7.5t23 -21.5t31 -37t32 -52.5t25.5 -68t13 -84.5t-5 -102q-1 -4 -2.5 -11
t-8 -28.5t-15.5 -42t-26.5 -47.5t-38.5 -49.5t-53.5 -44t-71.5 -34.5q-8 -3 -22 -8t-57.5 -13t-86.5 -9.5t-102.5 9t-110.5 36.5q-8 3 -21 10t-46 32t-58.5 54.5t-45.5 79t-18 104.5q-1 4 -1.5 9.5t1 23.5t5.5 37t14.5 46.5t26 53.5t43 57t63.5 59q2 2 7 6t19 17.5
t25.5 27.5t24.5 35.5t19.5 43.5t6.5 49t-10 53zM390 788q0 2 1 4.5t4.5 6t7.5 2.5q6 -2 15.5 -5t37.5 -14.5t53 -26t56 -39t52.5 -52t36 -66.5t14.5 -83q0 -1 1 -2.5t3.5 -4.5t5.5 -4.5t7.5 -1t9.5 3.5q30 23 38 60q1 2 2.5 4t6.5 4.5t11 -4.5q5 -4 14 -12t30.5 -35
t37.5 -56.5t28 -75t8 -91.5q1 -4 1 -10.5t-1.5 -27t-5 -40.5t-13.5 -48t-25 -52.5t-40 -50.5t-57.5 -45.5t-79.5 -34.5t-104 -20q-9 -1 -24 -2t-59 3t-84.5 15.5t-91 41.5t-88.5 75q-2 1 -5 4.5t-10.5 15t-14 24.5t-13 35t-9.5 46.5t-1 57.5t10 69q1 3 2.5 8.5t10.5 24
t22.5 38t40 48.5t59.5 57q2 1 5 3.5t12.5 11.5t18.5 18.5t20.5 24.5t21 30t17 35t11 40.5t2.5 44.5t-9 48zM443 -29q-4 5 -11 13.5t-23.5 35.5t-28 54.5t-17.5 67.5t1.5 77.5t35 81.5t76.5 82q15 10 19 -8q1 -4 1.5 -11t6 -27.5t13.5 -40t25 -44.5t39 -45q5 -4 12.5 -11.5
t23.5 -32t23 -50t0.5 -63t-32.5 -73.5q-5 -1 -12.5 -2t-29.5 -3.5t-41.5 -3.5t-42.5 -0.5t-38 3.5zM470 336q2 -10 6.5 -26t23 -52t42.5 -56q6 -4 14.5 -12t26.5 -33t25.5 -50.5t-1.5 -63t-41 -71.5q-35 -12 -84 0v0q-46 46 -72 113q-54 141 60 251z" />
    <glyph glyph-name="zhifu2" unicode="&#xe7c7;" 
d="M909 707q-55 0 -89.5 34t-34.5 90l-273 -25l-273 25q0 -56 -34 -90t-90 -34q-10 -117 7.5 -222.5t49.5 -180t79.5 -140t88 -104t86 -70.5t61.5 -40.5t25 -12.5v0q10 4 26 12.5t61.5 40.5t86 70.5t88 104t79.5 140t49.5 180t6.5 222.5zM595 459h99v-89h-131v-38h131v-89
h-131v-107h-102v107h-135v89h135v38h-135v89h103l-141 241h116q90 -165 110 -205q6 13 110 205v0h113z" />
    <glyph glyph-name="daishouhuo1" unicode="&#xe62a;" 
d="M399 101v368l321 135v-93l1 1q15 26 47 29v115l-374 151l-367 -136v-420l348 -217l187 101q-10 22 -18 44zM376 511l-109 57l292 121l123 -49zM496 714l-284 -117l-103 54l284 105zM74 616l112 -59v-112l47 -26v113l119 -62v-365l-278 172v339zM1001 415q-1 9 -8 15.5
t-16 6.5h-3q-27 -5 -51 -2.5t-41.5 5.5t-32 10t-23.5 12.5t-16 12.5t-9.5 10t-3.5 4q-7 12 -20 12h-3l-1 -1q-12 -1 -18 -11q-2 -1 -4 -4t-9 -10t-16 -12.5t-24 -12.5t-32.5 -10t-41.5 -5.5t-51 2.5h-3q-9 0 -15 -6q-8 -6 -9 -16q-1 -9 -1 -22.5t2 -49t8 -69.5t21.5 -77.5
t38 -80t60.5 -70.5t86 -55q5 -2 10 -2v0h0.5h0.5h1q4 0 9 2q48 21 86 55t60.5 70.5t38 80t21.5 77.5t8 69.5t2 49t-1 22.5zM776 39q-47 21 -81.5 58.5t-52.5 75.5t-29 83.5t-13.5 74.5t-2.5 56q114 -6 179 55q64 -61 178 -55q0 -27 -2.5 -56t-13.5 -74.5t-29 -83.5
t-52.5 -75.5t-80.5 -58.5zM767 228l-57 47l-30 -37l95 -77l112 145l-37 29z" />
    <glyph glyph-name="shangchuantouxiang" unicode="&#xe617;" 
d="M512 493q-68 0 -115.5 -47.5t-47.5 -114.5t47.5 -114.5t115.5 -47.5t115.5 47.5t47.5 114.5t-47.5 114.5t-115.5 47.5zM512 205q-53 0 -91 37.5t-38 89.5q0 53 37.5 90.5t91.5 37.5t91.5 -37.5t37.5 -90.5t-38 -90t-91 -37zM828 617h-74q-38 0 -58 33l-33 56
q-28 50 -86 50h-129q-59 0 -87 -50l-33 -56q-20 -33 -58 -33h-74q-41 0 -70 -29t-29 -70q0 -272 1 -407q0 -41 29 -70t71 -29h464q6 0 11 5t5 11.5t-5 11t-11 4.5h-466q-27 0 -46.5 20t-19.5 47v407q0 27 19.5 46.5t46.5 19.5h71q59 0 87 49l33 57q20 33 59 33h128
q38 0 58 -33l34 -57q30 -49 87 -49h73q27 0 47 -19.5t20 -46.5v-238q0 -8 5 -13t12 -5t12 5t5 13v238q0 41 -29 70t-70 29zM912 141h-82v82q0 7 -4.5 11.5t-11 4.5t-11.5 -4.5t-5 -11.5v-82h-81q-7 0 -11.5 -4.5t-4.5 -11t4.5 -11t11.5 -4.5h81v-82q0 -6 5 -11t11.5 -5t11 5
t4.5 11v82h82q6 0 10.5 4.5t4.5 11t-4.5 11t-10.5 4.5z" />
    <glyph glyph-name="gengduo1" unicode="&#xe64b;" 
d="M417 362l-5 -5zM447 562q-8 8 -19.5 8t-20 -8t-8.5 -19.5t8 -20.5l126 -125q5 -6 5 -13.5t-5 -12.5l-126 -126q-8 -8 -8 -19.5t8 -20t20 -8.5t20 8l152 152q11 11 11 26.5t-11 26.5zM511 832q-91 0 -174 -35.5t-143 -95.5t-95.5 -143t-35.5 -174.5t35.5 -174.5t95.5 -143
t143 -95t174 -35t174 35t143 95.5t95.5 143.5t35.5 174t-35.5 174t-95.5 143t-143 95.5t-174 35.5zM511 -36q-114 0 -211 56t-153 153t-56 211t56 210.5t153 153t211 56.5t211 -56.5t153 -153t56 -210.5t-56 -211t-153 -153t-211 -56z" />
    <glyph glyph-name="neirongbucunzai" unicode="&#xe67f;" 
d="M393 542q0 11 -7.5 19t-18.5 8t-19 -8t-8 -19q0 -17 -12 -29.5t-29.5 -12.5t-30 12.5t-12.5 29.5q0 11 -8 19t-19 8t-18.5 -8t-7.5 -19v0q0 -16 8 -36t19.5 -31.5t31.5 -19.5t36 -8v0v0q16 0 36 8t31.5 19.5t19.5 31.5t8 36v0zM793.5 474.5q11.5 11.5 19.5 31.5t8 36v0v0
q0 11 -7.5 19t-18.5 8t-19 -8t-8 -19v0q0 -17 -12 -29.5t-30 -12.5t-30 12.5t-12 29.5v0q0 11 -8 19t-19 8t-18.5 -8t-7.5 -19v0q0 -16 8 -36t19.5 -31.5t31.5 -19.5t36 -8v0v0q16 0 36 8t31.5 19.5zM333 148q0 74 52 126v0q22 22 59 37.5t68 15.5v0q74 0 127 -53l1 -1
q21 -21 36 -58t15 -67v0q1 -11 8.5 -18.5t18.5 -7.5t18.5 7.5t7.5 18.5v0q0 39 -19.5 86.5t-46.5 75.5l-2 2q-28 28 -76 48t-88 20v0v0q-40 0 -88 -20t-76 -48v0q-28 -28 -48 -76t-20 -88v0q0 -11 7.5 -18.5t18.5 -7.5t18.5 7.5t8.5 18.5zM874 746q-71 71 -164.5 110.5
t-197.5 39.5t-197.5 -39.5t-164.5 -110.5t-110.5 -164.5t-39.5 -197.5v0q0 -32 6.5 -76.5t16.5 -74.5q21 -68 59 -127l-49 -147v0q-6 -16 -4 -29q3 -16 15 -24q10 -7 22 -7h1q11 1 23 6l1 1l138 68q15 7 15 24q0 6 -2 12q-8 14 -24 14q-6 0 -12 -2l-115 -57l45 134q2 5 2 11
q0 9 -6 16q-38 57 -59 122q-20 66 -20 136v0q0 93 35.5 177t99 147.5t147.5 99t177 35.5t177 -35.5t147.5 -99t99 -147.5t35.5 -177t-35.5 -177t-99 -147.5t-147.5 -99t-177 -35.5q-42 0 -82 7q-41 8 -79 22q-5 2 -10 2q-7 0 -14.5 -5t-10.5 -12q-1 -5 -1 -10q0 -7 5 -14.5
t12 -9.5q43 -17 88 -25q47 -8 92 -8q104 0 197.5 39.5t164.5 110.5t110.5 164.5t39.5 197.5t-39.5 197.5t-110.5 164.5z" />
    <glyph glyph-name="shouye_shouye" unicode="&#xe618;" 
d="M994 375l-469 438l-469 -437q-7 -7 -7 -16t6.5 -16t15.5 -7.5t16 6.5l438 408l438 -410q6 -6 15 -6v0v0q10 0 17 7q6 7 5.5 16.5t-6.5 16.5zM850.5 366q-9.5 0 -16 -7t-6.5 -16v-349h-182v243h-242v-243h-182v349q0 9 -6.5 16t-16 7t-16 -7t-6.5 -16v-394h272v242h152
v-242h272v394q0 9 -6.5 16t-16 7zM692 691h136v-121q0 -9 6.5 -16t16 -7t16 7t6.5 16v167h-181q-10 0 -16.5 -7t-6.5 -16.5t6.5 -16t16.5 -6.5zM207 -15h210v232h203v-232h226v360h125l-446 423l-462 -417l142 -6z" />
    <glyph glyph-name="aixinjuanzeng" unicode="&#xe7e1;" 
d="M800 487q-2 0 -7.5 -0.5t-10.5 -0.5t-9 1q-37 -11 -64.5 -40t-42.5 -67q-18 23 -46.5 37.5t-60.5 15.5q-13 -2 -26 0q-57 -16 -93.5 -76.5t-27.5 -123.5q9 -50 49.5 -92.5t92 -68.5t101.5 -45.5t84 -31t34 -15.5t1 1q1 2 2 6q25 92 64 153q14 22 39.5 52t39.5 48.5
t23.5 52t4.5 74.5q-10 53 -52 86.5t-95 33.5zM346 -7h-1h1zM733 767q-41 3 -81 -12t-72 -42.5t-56.5 -57t-44.5 -62.5q-23 54 -75.5 101.5t-98.5 45.5q-57 0 -109 -24t-89.5 -74t-41.5 -115q-3 -56 9 -101t36 -78t49 -59t56.5 -59t49.5 -64q22 -33 41 -75.5t28.5 -69.5
t10.5 -28l12.5 4.5t42 17.5t66.5 31q-95 60 -120 160q-8 61 7 121.5t52 105.5t88 54q91 38 160 -27q20 45 48.5 64t71.5 29q21 5 40 0q76 6 147 -53q-3 10 0 27q5 108 -57 169.5t-170 70.5z" />
    </font>
</defs>
</svg>
